/* XPM */
static char * Linux_debian_DiffMergeIcon32_xpm[] = {
"32 32 211 2",
"  	c None",
". 	c #78ADC2",
"+ 	c #56666C",
"@ 	c #78AEC5",
"# 	c #4D4F51",
"$ 	c #050000",
"% 	c #2D3234",
"& 	c #6AB2CD",
"* 	c #7AB0C7",
"= 	c #505254",
"- 	c #1A1618",
"; 	c #231F20",
"> 	c #10090B",
", 	c #2E3235",
"' 	c #6CB3D0",
") 	c #4E4F51",
"! 	c #120B0D",
"~ 	c #0E070A",
"{ 	c #2E3335",
"] 	c #6BB3CF",
"^ 	c #5E91A3",
"/ 	c #1B1A1C",
"( 	c #1B1616",
"_ 	c #232020",
": 	c #313638",
"< 	c #6EB5D1",
"[ 	c #5F9DB2",
"} 	c #1B1B1C",
"| 	c #1A1516",
"1 	c #10090C",
"2 	c #6BB5D1",
"3 	c #5F9AAE",
"4 	c #1B1A1B",
"5 	c #110A0D",
"6 	c #32373A",
"7 	c #6DB5D1",
"8 	c #619FB5",
"9 	c #1D1C1D",
"0 	c #1B1516",
"a 	c #100A0C",
"b 	c #323739",
"c 	c #609AAF",
"d 	c #1E1D1E",
"e 	c #1A1517",
"f 	c #120C0E",
"g 	c #6DB4D0",
"h 	c #1F1E1F",
"i 	c #1B1617",
"j 	c #6BB3CE",
"k 	c #67CEF6",
"l 	c #5FCCF6",
"m 	c #629DB3",
"n 	c #212021",
"o 	c #1C1618",
"p 	c #130E0F",
"q 	c #6DB3CF",
"r 	c #75C0DE",
"s 	c #6190A0",
"t 	c #4E7B89",
"u 	c #588595",
"v 	c #6EB4D0",
"w 	c #5CCCF5",
"x 	c #64A1B7",
"y 	c #242021",
"z 	c #0F080A",
"A 	c #393E41",
"B 	c #6DB6D3",
"C 	c #78B0C6",
"D 	c #495559",
"E 	c #526368",
"F 	c #7F929A",
"G 	c #40595F",
"H 	c #2A3336",
"I 	c #6AA8BF",
"J 	c #5ECCF6",
"K 	c #639EB4",
"L 	c #1C1718",
"M 	c #323132",
"N 	c #201D1D",
"O 	c #70B6D3",
"P 	c #76CBEE",
"Q 	c #546267",
"R 	c #347482",
"S 	c #66CEF4",
"T 	c #5EC8EB",
"U 	c #1C6C77",
"V 	c #394549",
"W 	c #69C8EA",
"X 	c #61CDF6",
"Y 	c #64A2B8",
"Z 	c #201F20",
"` 	c #3A393B",
" .	c #2D2C2D",
"..	c #141213",
"+.	c #0A0506",
"@.	c #2D3133",
"#.	c #6CB4D1",
"$.	c #7BADC2",
"%.	c #324448",
"&.	c #009CBE",
"*.	c #00BEE5",
"=.	c #00B8DD",
"-.	c #00BDE6",
";.	c #00A0C1",
">.	c #2F5258",
",.	c #67B9D7",
"'.	c #61CDF5",
").	c #62A0B7",
"!.	c #313132",
"~.	c #2A2929",
"{.	c #131011",
"].	c #191718",
"^.	c #181617",
"/.	c #0E0A0B",
"(.	c #292B2D",
"_.	c #70A1B4",
":.	c #2C464B",
"<.	c #0097B7",
"[.	c #00B7DB",
"}.	c #00BBE0",
"|.	c #00B3D6",
"1.	c #0099B9",
"2.	c #325E66",
"3.	c #69BBD8",
"4.	c #62CCF2",
"5.	c #79B7CF",
"6.	c #383839",
"7.	c #0E0B0D",
"8.	c #171515",
"9.	c #282525",
"0.	c #2D2F30",
"a.	c #75B9D3",
"b.	c #31393B",
"c.	c #00788C",
"d.	c #00A7CE",
"e.	c #00AED3",
"f.	c #00A0C5",
"g.	c #008DA2",
"h.	c #435054",
"i.	c #64BDDC",
"j.	c #60CCF4",
"k.	c #76ADC3",
"l.	c #3A3A3B",
"m.	c #242122",
"n.	c #161516",
"o.	c #272424",
"p.	c #3A3F42",
"q.	c #6CB3CE",
"r.	c #5F818E",
"s.	c #1F2D2F",
"t.	c #006C7A",
"u.	c #008AA3",
"v.	c #007B8B",
"w.	c #414F53",
"x.	c #629BAF",
"y.	c #73ABC1",
"z.	c #363536",
"A.	c #221F20",
"B.	c #3A3F41",
"C.	c #5F8E9F",
"D.	c #354246",
"E.	c #353F42",
"F.	c #404D51",
"G.	c #5E96AA",
"H.	c #74AAC0",
"I.	c #373738",
"J.	c #262324",
"K.	c #3B4043",
"L.	c #69B1CD",
"M.	c #6ABCDB",
"N.	c #67C3E5",
"O.	c #5DCCF6",
"P.	c #75ACC1",
"Q.	c #1B1618",
"R.	c #242121",
"S.	c #383E41",
"T.	c #6DB4D1",
"U.	c #74ABC1",
"V.	c #373638",
"W.	c #383D40",
"X.	c #353435",
"Y.	c #262323",
"Z.	c #75ABC1",
"`.	c #383738",
" +	c #393D40",
".+	c #77ADC3",
"++	c #232021",
"@+	c #272425",
"#+	c #76ABC1",
"$+	c #3B3B3C",
"%+	c #2A2728",
"&+	c #7BA9BB",
"*+	c #3C3B3D",
"=+	c #262223",
"-+	c #2D2A2B",
";+	c #6BB2CE",
">+	c #3E3F41",
",+	c #0D0507",
"'+	c #2F2C2D",
")+	c #69AFCB",
"!+	c #68A2B8",
"~+	c #282C2D",
"{+	c #312E2F",
"]+	c #3C4144",
"^+	c #6BB1CD",
"/+	c #6BA6BE",
"(+	c #282B2D",
"_+	c #3D4244",
":+	c #68AFC9",
"<+	c #699FB4",
"[+	c #435257",
"                                                                ",
"                  . +                                           ",
"                @ # $ % &                                       ",
"              * = - ; > , '                                     ",
"              ) ! ; ; ; ~ { ]                                   ",
"              ^ / ( _ ; ; > : <                                 ",
"                [ } | ; _ ; 1 : 2                               ",
"                  3 4 | ; _ ; 5 6 7                             ",
"                    8 9 0 ; ; ; a b 2                           ",
"                      c d e ; _ ; f 6 g                         ",
"                        8 h i ; _ ; ! : j                       ",
"                      k l m n o ; ; _ p : q                     ",
"                r s t u v w x n i ; ; y z A B                   ",
"              C D E F G H I J K n L ; ; M N { O                 ",
"            P Q R S w T U V W X Y Z | `  ...+.@.#.              ",
"            $.%.&.*.=.-.;.>.,.  '.).!.~.{.].^./.(.              ",
"            _.:.<.[.}.|.1.2.3.  4.5.6.7.8.^.].9.0.              ",
"            a.b.c.d.e.f.g.h.i.j.k.l.i m.n.^.o.p.q.              ",
"              r.s.t.u.v.w.x.l y.z.i _ ; A.N B.q                 ",
"                C.D.E.F.G.w H.I.i _ ; y J.K.L.                  ",
"                    M.N.O.P.z.Q._ ; R.m.S.T.                    ",
"                        U.V.i _ ; y m.W.&                       ",
"                      P.X.i ; ; R.Y.A g                         ",
"                    Z.`.| _ ; ; J. +]                           ",
"                  .+`.i ++; Y.@+p.g                             ",
"                #+$+| ; ++m.%+p.&                               ",
"              &+*+i ; _ =+-+K.;+                                ",
"              >+,+; ; y '+B.)+                                  ",
"              !+~+f =+{+]+^+                                    ",
"                /+(+0 _+:+                                      ",
"                  <+[+                                          ",
"                                                                "};
