/* XPM */
const char * gXpm_apply_left_24x24[]={
"24 24 3 1",
". c None",
"# c #40a040",
"b c #a0daa0",
"........................",
"........................",
"........................",
"........................",
"........................",
".............##.........",
".............#b#........",
".............#bb#.......",
".............#bbb#......",
"...###########bbbb#.....",
"...#bbbbbbbbbbbbbbb#....",
"...#bbbbbbbbbbbbbbbb#...",
"...#bbbbbbbbbbbbbbb#....",
"...###########bbbb#.....",
".............#bbb#......",
".............#bb#.......",
".............#b#........",
".............##.........",
"........................",
"........................",
"........................",
"........................",
"........................",
"........................"};
