/* XPM */
const char * gXpm_atmark_16x16[] = {
"16 16 75 1",
" 	c None",
".	c #FBFBFB",
"+	c #9C9C9C",
"@	c #404040",
"#	c #111111",
"$	c #040404",
"%	c #232323",
"&	c #6D6D6D",
"*	c #E6E6E6",
"=	c #353535",
"-	c #454545",
";	c #B6B6B6",
">	c #EFEFEF",
",	c #F7F7F7",
"'	c #D3D3D3",
")	c #777777",
"!	c #161616",
"~	c #B8B8B8",
"{	c #F9F9F9",
"]	c #323232",
"^	c #7F7F7F",
"/	c #CCCCCC",
"(	c #191919",
"_	c #949494",
":	c #4C4C4C",
"<	c #EDEDED",
"[	c #505050",
"}	c #080808",
"|	c #1C1C1C",
"1	c #979797",
"2	c #000000",
"3	c #555555",
"4	c #373737",
"5	c #C3C3C3",
"6	c #585858",
"7	c #606060",
"8	c #ECECEC",
"9	c #5D5D5D",
"0	c #EAEAEA",
"a	c #121212",
"b	c #0C0C0C",
"c	c #F6F6F6",
"d	c #EEEEEE",
"e	c #070707",
"f	c #0B0B0B",
"g	c #F3F3F3",
"h	c #C5C5C5",
"i	c #333333",
"j	c #C0C0C0",
"k	c #626262",
"l	c #D5D5D5",
"m	c #2F2F2F",
"n	c #B0B0B0",
"o	c #8B8B8B",
"p	c #EBEBEB",
"q	c #1A1A1A",
"r	c #969696",
"s	c #0A0A0A",
"t	c #3D3D3D",
"u	c #2B2B2B",
"v	c #888888",
"w	c #E1E1E1",
"x	c #2E2E2E",
"y	c #4B4B4B",
"z	c #BABABA",
"A	c #F0F0F0",
"B	c #D6D6D6",
"C	c #828282",
"D	c #515151",
"E	c #3A3A3A",
"F	c #0E0E0E",
"G	c #050505",
"H	c #1F1F1F",
"I	c #5B5B5B",
"J	c #BEBEBE",
"                ",
"                ",
"                ",
"    .+@#$%&*    ",
"   *=-;>,')!~   ",
"  {]^      /('  ",
"  _: <[}|12 13  ",
"  45 67<892 0a  ",
"  bc bd  <2 {e  ",
"  fg bd  <2 h]  ",
"  ij 37<>k2lmn  ",
"  o[ p:eqrst;   ",
"  ,uv           ",
"   wxyzA{BCD    ",
"    {_EFGHIJ    ",
"                "};
