/* XPM */
const char * gXpm_auto_merge_24x24[] = {
"24 24 6 1",
" 	c None",
".	c #000000",
"+	c #F9F9CF",
"@	c #EF5166",
"#	c #EA0E24",
"$	c #872D39",
"                        ",
"                        ",
"  ...  ...........  ..  ",
"  ++.  .+++++++++.  .+  ",
"  ++.  .+++++++++.  .+  ",
"  ++.  .+@+++++++.  .+  ",
"  ++.  .+@+++++++.  .+  ",
"  @@@@@@@@#++++++.  .+  ",
"  ##########+++++.  .+  ",
"  ##########$++++.  .+  ",
"  $$$$$$$##$+++++.  .+  ",
"  ++.  .+#$++++@+.  .+  ",
"  ++.  .+$++++@#@@@@@@  ",
"  ++.  .+++++@########  ",
"  ++.  .++++@#########  ",
"  ++.  .+++++$##$$$$$$  ",
"  ++.  .++++++$#+.  .+  ",
"  ++.  .+++++++$+.  .+  ",
"  +.   .++++++++.   .+  ",
"  .    .........    ..  ",
"                        ",
"                        ",
"                        ",
"                        "};
