/* XPM */
const char * gXpm_change_next_16x15[]={
"16 15 9 1",
". c None",
"a c #0000c0",
"c c #0080ff",
"f c #585858",
"# c #58a8ff",
"d c #a8dcff",
"g c #b1b1b1",
"e c #c3c3c3",
"b c #dcdcdc",
"................",
"................",
"..#aaaaaaaaa#b..",
"..#cdddddddc#e..",
"..bacdddddcafe..",
"...badddddafe...",
"....acdddcaf....",
"....badddafe....",
".....acdcaf.....",
".....badafe.....",
"......aaaf......",
"......bafe......",
".......ge.......",
"................",
"................"};
