/* XPM */
const char * gXpm_change_prev_16x15[]={
"16 15 7 1",
". c None",
"# c #0000c0",
"c c #0080ff",
"e c #585858",
"d c #58a8ff",
"a c #a8dcff",
"b c #c3c3c3",
"................",
"................",
".......#........",
"......###.......",
"......#a#b......",
".....#cac#......",
".....#aaa#b.....",
"....#caaac#.....",
"....#aaaaa#b....",
"...#caaaaac#....",
"..dcaaaaaaacd...",
"..d#########db..",
"..beeeeeeeeeb...",
"................",
"................"};
