/* XPM */
const char * gXpm_change_next_24x24[]={
"24 24 5 1",
". c None",
"# c #0000c0",
"b c #a0a0a0",
"a c #a8dcff",
"c c #dcdcdc",
"........................",
"........................",
"........................",
"...#################....",
"....#aaaaaaaaaaaaa#b....",
"....#aaaaaaaaaaaaa#c....",
".....#aaaaaaaaaaa#b.....",
".....#aaaaaaaaaaa#c.....",
"......#aaaaaaaaa#b......",
"......#aaaaaaaaa#c......",
".......#aaaaaaa#b.......",
".......#aaaaaaa#c.......",
"........#aaaaa#b........",
"........#aaaaa#c........",
".........#aaa#b.........",
".........#aaa#c.........",
"..........#a#b..........",
"..........#a#c..........",
"...........#b...........",
"...........#c...........",
"...........c............",
"........................",
"........................",
"........................"};
