/* XPM */
const char * gXpm_checkmark_16x16[] = {
"16 16 2 1",
" 	c None",
".	c #000000",
"                ",
"                ",
"            ... ",
"           .... ",
"          ..... ",
"          ....  ",
"         .....  ",
"        .....   ",
"....   ......   ",
"..... ......    ",
"...........     ",
" .........      ",
"  .......       ",
"   .....        ",
"    ...         ",
"                "};
