/* XPM */
const char * gXpm_conflict_prev_16x15[]={
"16 15 6 1",
". c None",
"d c #585858",
"# c #c00000",
"b c #c3c3c3",
"c c #ffc0c0",
"a c #ffffc0",
"................",
"................",
".......#........",
"......###.......",
"......#a#b......",
".....#cac#......",
".....#aaa#b.....",
"....#caaac#.....",
"....#aaaaa#b....",
"...#caaaaac#....",
"..ccaaaaaaacc...",
"..###########b..",
"..bdddddddddb...",
"................",
"................"};
