/* XPM */
const char * gXpm_conflict_next_16x15[]={
"16 15 8 1",
". c None",
"e c #585858",
"f c #b1b1b1",
"# c #c00000",
"d c #c3c3c3",
"a c #dcdcdc",
"b c #ffc0c0",
"c c #ffffc0",
"................",
"................",
"..###########a..",
"..b#ccccccc#bd..",
"..a#bcccccb#ed..",
"...a#ccccc#ed...",
"....#bcccb#e....",
"....a#ccc#ed....",
".....#bcb#e.....",
".....a#c#ed.....",
"......###e......",
"......a#ed......",
".......fd.......",
"................",
"................"};
