/* XPM */
const char * gXpm_conflict_prev_24x24[]={
"24 24 6 1",
". c None",
"d c #585858",
"# c #c00000",
"a c #c3c3c3",
"c c #dcdcdc",
"b c #ffffc0",
"........................",
"........................",
"........................",
"............#...........",
"............#a..........",
"...........#b#..........",
"...........#b#a.........",
"..........#bbb#.........",
"..........#bbb#a........",
".........#bbbbb#........",
".........#bbbbb#a.......",
"........#bbbbbbb#.......",
"........#bbbbbbb#a......",
".......#bbbbbbbbb#......",
".......#bbbbbbbbb#a.....",
"......#bbbbbbbbbbb#.....",
"......#bbbbbbbbbbb#a....",
".....#bbbbbbbbbbbbb#....",
".....#bbbbbbbbbbbbb#a...",
"....#bbbbbbbbbbbbbbb#...",
"...c#################c..",
"....adddddddddddddddda..",
"........................",
"........................"};
