/* XPM */
const char * gXpm_dop_eql_16x15[]={
"16 15 8 1",
". c None",
"d c #000000",
"c c #585858",
"f c #616161",
"# c #a0a0a0",
"a c #acacac",
"e c #b1b1b1",
"b c #ffffff",
"................",
"..#aaaaaaaaaa#..",
"..#bbbbbbbbbb#c.",
"..#bbbbbbbbbb#c.",
"..#bbbbbbbbbb#c.",
"..#bbbdddddbb#c.",
"..#bbbbbbbbbb#c.",
"..#bbbdddddbb#c.",
"..#bbbbbbbbbb#c.",
"..#bbbdddddbb#c.",
"..#bbbbbbbbbb#c.",
"..#bbbbbbbbbb#c.",
"..#eeeeeeeeee#c.",
"...fffffffffffc.",
"................"};
