/* XPM */
const char * gXpm_dop_omitted_16x15[]={
"16 15 10 1",
". c None",
"c c #585858",
"h c #616161",
"f c #808080",
"# c #a0a0a0",
"a c #acacac",
"g c #b1b1b1",
"e c #dcdcdc",
"d c #ff0000",
"b c #ffffff",
"................",
"..#aaaaaaaaaa#..",
"..#bbbbbbbbbb#c.",
"..#dbbbdbbbbb#c.",
"..#bdedeeeeeb#c.",
"..#bedffffeeb#c.",
"..#bdedeeeeeb#c.",
"..#deefdffeeb#c.",
"..#beeeeeeeeb#c.",
"..#beeffffeeb#c.",
"..#beeeeeeeeb#c.",
"..#bbbbbbbbbb#c.",
"..#gggggggggg#c.",
"...hhhhhhhhhhhc.",
"................"};
