/* XPM */
const char * gXpm_dop_omitted_24x24[]={
"24 24 7 1",
". c None",
"b c #585858",
"e c #808080",
"# c #a0a0a0",
"d c #dcdcdc",
"c c #ff0000",
"a c #ffffff",
"........................",
"........................",
"..###################...",
"..#aaaaaaaaaaaaaaaaa#b..",
"..#aaaaaaaaaaaaaaaaa#b..",
"..#aaaaaaaaaaaaaaaaa#b..",
"..#acaaaaacaaaaaaaaa#b..",
"..#aacdddcddddddddaa#b..",
"..#aadc#c#######ddaa#b..",
"..#aaddcddddddddddaa#b..",
"..#aadcdcdddddddddaa#b..",
"..#aacdeeceeeeeeddaa#b..",
"..#acdddddcdddddddaa#b..",
"..#aadddddddddddddaa#b..",
"..#aaddeeeeeeeeeddaa#b..",
"..#aadddddddddddddaa#b..",
"..#aaaaaaaaaaaaaaaaa#b..",
"..#aaaaaaaaaaaaaaaaa#b..",
"..#aaaaaaaaaaaaaaaaa#b..",
"..#aaaaaaaaaaaaaaaaa#b..",
"..###################b..",
"...bbbbbbbbbbbbbbbbbbb..",
"........................",
"........................"};
