/* XPM */
const char *gXpm_dop_all_16x15[]={
"16 15 9 1",
". c None",
"d c #000000",
"c c #585858",
"g c #616161",
"# c #a0a0a0",
"a c #acacac",
"f c #b1b1b1",
"e c #c3c3c3",
"b c #ffffff",
"................",
"..#aaaaaaaaaa#..",
"..#bbbbbbbbbb#c.",
"..#bbbbddbbbb#c.",
"..#bbbeddebbb#c.",
"..#bddddddddb#c.",
"..#bb#dddd#bb#c.",
"..#bbbeddebbb#c.",
"..#bb#d##d#bb#c.",
"..#bbd#bb#dbb#c.",
"..#bbbbbbbbbb#c.",
"..#bbbbbbbbbb#c.",
"..#ffffffffff#c.",
"...gggggggggggc.",
"................"};
