/* XPM */
const char * gXpm_dop_squiggles_16x15[]={
"16 15 10 1",
". c None",
"e c #000000",
"c c #585858",
"h c #616161",
"f c #808080",
"# c #a0a0a0",
"a c #acacac",
"g c #b1b1b1",
"d c #dcdcdc",
"b c #ffffff",
"................",
"..#aaaaaaaaaa#..",
"..#bbbbbbbbbb#c.",
"..#bbbbbbbbbb#c.",
"..#bb#c#dbdcb#c.",
"..#bdeceeee#b#c.",
"..#bfdbbd#dbb#c.",
"..#bbbbbbbbbb#c.",
"..#bb#c#dbdcb#c.",
"..#bdeceeee#b#c.",
"..#bfdbbd#dbb#c.",
"..#bbbbbbbbbb#c.",
"..#gggggggggg#c.",
"...hhhhhhhhhhhc.",
"................"};
