/* XPM */
const char * gXpm_dop_all_24x24[]={
"24 24 8 1",
". c None",
"f c #000000",
"b c #585858",
"e c #808080",
"# c #a0a0a0",
"c c #c3c3c3",
"d c #dcdcdc",
"a c #ffffff",
"........................",
"........................",
"..###################...",
"..#aaaaaaaaaaaaaaaaa#b..",
"..#aaaaaaaaaaaaaaaaa#b..",
"..#aaaaaaaaaaaaaaaaa#b..",
"..#aaaaaaaccaaaaaaaa#b..",
"..#aaaaadaeeaddaaaaa#b..",
"..#aaaaefd##dfeaaaaa#b..",
"..#aaaaa#feef#aaaaaa#b..",
"..#aaaaaadffdaaaaaaa#b..",
"..#aaaadbfccfbdaaaaa#b..",
"..#aaaaefd##dfeaaaaa#b..",
"..#aaaaaaaeeaaaaaaaa#b..",
"..#aaaaaaa##aaaaaaaa#b..",
"..#aaaaaaaaaaaaaaaaa#b..",
"..#aaaaaaaaaaaaaaaaa#b..",
"..#aaaaaaaaaaaaaaaaa#b..",
"..#aaaaaaaaaaaaaaaaa#b..",
"..#aaaaaaaaaaaaaaaaa#b..",
"..###################b..",
"...bbbbbbbbbbbbbbbbbbb..",
"........................",
"........................"};
