/* XPM */
const char * gXpm_dop_ctx_24x24[]={
"24 24 7 1",
". c None",
"c c #000000",
"e c #0058c0",
"b c #585858",
"# c #a0a0a0",
"d c #a8dcff",
"a c #ffffff",
"........................",
"........................",
"..###################...",
"..#aaaaaaaaaaaaaaaaa#b..",
"..#aaaaaaaaaaaaaaaaa#b..",
"..#aaaacccccccccaaaa#b..",
"..#aaaaaaaaaaaaaaaaa#b..",
"..#aadddddddddddddaa#b..",
"..#aadddddddddddddaa#b..",
"..#aaddeeeeeeeeeddaa#b..",
"..#aadddddddddddddaa#b..",
"..#aadddddddddddddaa#b..",
"..#aadddddddddddddaa#b..",
"..#aaddeeeeeeeeeddaa#b..",
"..#aadddddddddddddaa#b..",
"..#aadddddddddddddaa#b..",
"..#aaaaaaaaaaaaaaaaa#b..",
"..#aaaacccccccccaaaa#b..",
"..#aaaaaaaaaaaaaaaaa#b..",
"..#aaaaaaaaaaaaaaaaa#b..",
"..###################b..",
"...bbbbbbbbbbbbbbbbbbb..",
"........................",
"........................"};
