/* XPM */
const char * gXpm_dop_ctx_16x15[]={
"16 15 10 1",
". c None",
"d c #000000",
"f c #0000c0",
"c c #585858",
"h c #616161",
"# c #a0a0a0",
"e c #a8dcff",
"a c #acacac",
"g c #b1b1b1",
"b c #ffffff",
"................",
"..#aaaaaaaaaa#..",
"..#bbbbbbbbbb#c.",
"..#bbbddddbbb#c.",
"..#bbbbbbbbbb#c.",
"..#beeffffeeb#c.",
"..#beeeeeeeeb#c.",
"..#beeffffeeb#c.",
"..#bbbbbbbbbb#c.",
"..#bbbddddbbb#c.",
"..#bbbbbbbbbb#c.",
"..#bbbbbbbbbb#c.",
"..#gggggggggg#c.",
"...hhhhhhhhhhhc.",
"................"};
