/* XPM */
const char * gXpm_dop_squiggles_24x24[]={
"24 24 8 1",
". c None",
"e c #000000",
"b c #585858",
"d c #808080",
"# c #a0a0a0",
"f c #c3c3c3",
"c c #dcdcdc",
"a c #ffffff",
"........................",
"........................",
"..###################...",
"..#aaaaaaaaaaaaaaaaa#b..",
"..#aaaaaaaaaaaaaaaaa#b..",
"..#aaaaaaaaaaaaaaaaa#b..",
"..#aaaaaaaaaaaaaaaaa#b..",
"..#aaaaaaaaaaaaacaaa#b..",
"..#aaaacdeebfcadbaaa#b..",
"..#aaaabedbeeeee#aaa#b..",
"..#aaacbcaacfbbcaaaa#b..",
"..#aaaaaaaaaaaaaaaaa#b..",
"..#aaaaaaaaaaaaacaaa#b..",
"..#aaaacdeebfcadbaaa#b..",
"..#aaaabedbeeeee#aaa#b..",
"..#aaacbcaacfbbcaaaa#b..",
"..#aaaaaaaaaaaaaaaaa#b..",
"..#aaaaaaaaaaaaaaaaa#b..",
"..#aaaaaaaaaaaaaaaaa#b..",
"..#aaaaaaaaaaaaaaaaa#b..",
"..###################b..",
"...bbbbbbbbbbbbbbbbbbb..",
"........................",
"........................"};
