/* XPM */
const char * gXpm_dop_dif_16x15[]={
"16 15 9 1",
". c None",
"e c #0000c0",
"c c #585858",
"g c #616161",
"# c #a0a0a0",
"d c #a8dcff",
"a c #acacac",
"f c #b1b1b1",
"b c #ffffff",
"................",
"..#aaaaaaaaaa#..",
"..#bbbbbbbbbb#c.",
"..#bbbbbbbbbb#c.",
"..#bddddddddb#c.",
"..#bddeeeeddb#c.",
"..#bddddddddb#c.",
"..#bddeeeeddb#c.",
"..#bddddddddb#c.",
"..#bddeeeeddb#c.",
"..#bddddddddb#c.",
"..#bbbbbbbbbb#c.",
"..#ffffffffff#c.",
"...gggggggggggc.",
"................"};
