/* XPM */
const char *gXpm_edit_copy_24x24[]={
"24 24 4 1",
". c None",
"# c #000000",
"b c #0000ff",
"a c #ffffff",
"........................",
"........................",
".#########..............",
".#aaaaaaa##.............",
".#aaaaaaa#a#............",
".#a####aa#aa#...........",
".#aaaaaaa#bbbbbbbbb.....",
".#aaaaaaaabaaaaaaabb....",
".#a######abaaaaaaabab...",
".#aaaaaaaaba####aabaab..",
".#aaaaaaaabaaaaaaabbbbb.",
".#a#######baaaaaaaaaaab.",
".#aaaaaaaaba######aaaab.",
".#aaaaaaaabaaaaaaaaaaab.",
".#a#######baaaaaaaaaaab.",
".#aaaaaaaaba#########ab.",
".#aaaaaaaabaaaaaaaaaaab.",
".#########baaaaaaaaaaab.",
"..........ba#########ab.",
"..........baaaaaaaaaaab.",
"..........baaaaaaaaaaab.",
"..........bbbbbbbbbbbbb.",
"........................",
"........................"};
