/* XPM */
const char * gXpm_edit_undo_24x24[]={
"24 24 9 1",
". c None",
"# c #000000",
"g c #0000ff",
"e c #0080ff",
"a c #585858",
"d c #58a8ff",
"f c #808080",
"c c #a8dcff",
"b c #ffffff",
"........................",
"........................",
"........................",
".......#a...............",
"......#ba...............",
".....#bca...............",
"....#bcd#####a..........",
"...#bcedccbbca#a........",
"..#bceeeeeeeeccc#.......",
"..f#geegggggeeeee#......",
"...f#gg#####geeeee#.....",
"....f#g#ffff#geeee#.....",
".....f##f....#eeee#f....",
"......f#f....#eeee#f....",
".......f.....#eeee#.....",
".............#eee#f.....",
".............#cee#......",
"............#cee#f......",
"...........#cee#f.......",
"..........#cee#f........",
".........#cg##f.........",
".......#####f...........",
".......fff..............",
"........................"};
