/* XPM */
const char * gXpm_edit_cut_24x24[]={
"24 24 4 1",
". c None",
"b c #0000ff",
"a c #303030",
"# c #808080",
"........................",
"........#.....#.........",
"........a.....a.........",
"........a#...#a.........",
"........aa...aa.........",
"........aa...aa.........",
"........#a#.#a#.........",
".........aa.aa..........",
".........aa.aa..........",
"..........aaa...........",
"..........#a#...........",
"...........a............",
"..........bab...........",
"..........b.b...........",
"..........b.bbb.........",
"........bbb.b..b........",
".......b..b.b...b.......",
"......b...b.b...b.......",
"......b...b.b...b.......",
"......b...b.b...b.......",
"......b...b..bbb........",
".......bbb..............",
"........................",
"........................"};
