/* XPM */
const char * gXpm_edit_redo_24x24[]={
"24 24 12 1",
". c None",
"b c #000000",
"j c #0000c0",
"h c #0000ff",
"g c #0080ff",
"a c #585858",
"f c #58a8ff",
"i c #808080",
"# c #a0a0a0",
"d c #a8dcff",
"e c #c3c3c3",
"c c #dcdcdc",
"........................",
"........................",
"...............#........",
"...............abc......",
"...............bdbc.....",
"..........eeeeebdfbc....",
"........eebbbbbbdfgbc...",
".......ebbdddddddfggbc..",
"......ebddffffffffgghb..",
".....ebdfgggggggggghbi..",
"....ebdfgggjhhhhgghbi...",
"....bdfgggjbbbbbhhbi....",
"....bdfggjbiiiibjbi.....",
"....bdfghbi....bbi......",
"....bdfghbi....aa.......",
"....bdfghbi....#........",
"....ibfghbi.............",
".....bgggbi.............",
".....ibggfbi............",
"......ibggfbi...........",
".......ibbgfbi..........",
".........ibbbbbb........",
"............iiii........",
"........................"};
