/* XPM */
const char * gXpm_edit_paste_24x24[]={
"24 24 5 1",
". c None",
"# c #000000",
"b c #a0a0a0",
"a c #ffff00",
"c c #ffffff",
"........................",
"......######............",
"...####aaaa####.........",
"..#bbb#aaaa#bbb#........",
".#bbb#aaaaaa#bbb#.......",
".#bb##########bb#.......",
".#bbbbbbbbbbbbbb#.......",
".#bbbbbbbbbbbbbb#.......",
".#bbbbbbbbbbbbbb#.......",
".#bbbbbbbbbbbbbb#.......",
".#bbbbbbbb#########.....",
".#bbbbbbbb#ccccccc##....",
".#bbbbbbbb#ccccccc#c#...",
".#bbbbbbbb#c#####c#cc#..",
".#bbbbbbbb#ccccccc#####.",
".#bbbbbbbb#ccccccccccc#.",
".#bbbbbbbb#c#####ccccc#.",
".#bbbbbbbb#ccccccccccc#.",
".#bbbbbbbb#ccccccccccc#.",
".##bbbbbbb#c#########c#.",
"..#########ccccccccccc#.",
"..........#ccccccccccc#.",
"..........#############.",
"........................"};
