/* XPM */
const char * gXpm_file_diff_16x15[]={
"16 15 5 1",
". c None",
"c c #585858",
"b c #808080",
"# c #c3c3c3",
"a c #ffffff",
"................",
"..####...####...",
"..#aaab..#aaab..",
"..#aaa#c.#aaa#c.",
"..#aaa#c.#aaa#c.",
"..#aaa#c.#aaa#c.",
"..#aaa#c.#aaa#c.",
"..#aaa#c.#aaa#c.",
"..#aaa#c.#aaa#c.",
"..#aaa#c.#aaa#c.",
"..#####c.#####c.",
"...ccccc..ccccc.",
"................",
"................",
"................"};
