/* XPM */
const char * gXpm_file_merge_24x24[]={
"24 24 5 1",
". c None",
"b c #808080",
"c c #a0a0a0",
"# c #c3c3c3",
"a c #ffffff",
"........................",
"........................",
"........................",
"...######....######.....",
"...#aaaaa#...#aaaaa#....",
"...#aaaaaa#..#aaaaaa#...",
"...#aaaaaa#b.#aaaaaa#b..",
"...#aaaaaa#b.#aaaaaa#b..",
"...#aaaaaa#b.#aaaaaa#b..",
"...#aaaaaa#b.#aaaaaa#b..",
"...#aaaa######aaaaaa#b..",
"...#aaaa#aaaaa#aaaaa#b..",
"...#aaaa#aaaaaa#aaaa#b..",
"...#aaaa#aaaaaa#aaaa#b..",
"...######aaaaaa######b..",
"....bbbb#aaaaaa#bbbbbb..",
"........#aaaaaa#c.......",
"........#aaaaaa#c.......",
"........#aaaaaa#c.......",
"........#aaaaaa#c.......",
"........#aaaaaa#c.......",
"........########c.......",
".........cccccccc.......",
"........................"};
