/* XPM */
const char *gXpm_folder_nopeer_24x24[]={
"24 24 4 1",
". c None",
"# c #000000",
"b c #808080",
"a c #c3c3c3",
"........................",
"........................",
"........................",
"........................",
"........................",
".....##.................",
".....##a........a#......",
".....##a.......a#b......",
"..########....a#b.......",
"..########a..a#b........",
"...aa##aaaa.a#b.........",
".....##a...a#b..........",
".....##a..a#b..######...",
"......aa.a#b...######a..",
"........a#b.....aaaaaa..",
".......a#b..............",
".......#b...............",
"........................",
"........................",
"........................",
"........................",
"........................",
"........................",
"........................"};
