/* XPM */
const char *gXpm_folder_equal_16x15[]={
"16 15 3 1",
". c None",
"# c #000000",
"a c #c3c3c3",
"................",
"................",
"................",
"................",
"...#########....",
"...#########a...",
"....aaaaaaaaa...",
"................",
"................",
"...#########....",
"...#########a...",
"....aaaaaaaaa...",
"................",
"................",
"................"};
