/* XPM */
const char * gXpm_folder_diff_24x24[]={
"24 24 6 1",
". c None",
"b c #585858",
"d c #808080",
"# c #a0a0a0",
"c c #c3c3c3",
"a c #ffff00",
"........................",
"........................",
"........................",
"........................",
"..#####.................",
"..#aaaa#########........",
"..#aaaaaaaaaaaaab.......",
"..#aaaaaaaaaaaaab.......",
"..#aaaaaaaaaaaaab.......",
"..#aaaacccccaaaab.......",
"..#aaaacaaaaccccccccc...",
"..#aaaacaaaaaaaaaaaaad..",
"..#aaaacaaaaaaaaaaaaad..",
"..#aaaacaaaaaaaaaaaaad..",
"..#aaaacaaaaaaaaaaaaad..",
"...bbbbcaaaaaaaaaaaaad..",
".......caaaaaaaaaaaaad..",
".......caaaaaaaaaaaaad..",
".......caaaaaaaaaaaaad..",
".......caaaaaaaaaaaaad..",
"........dddddddddddddd..",
"........................",
"........................",
"........................"};
