/* XPM */
const char *gXpm_folder_folders_16x15[]={
"16 15 4 1",
". c None",
"# c #000000",
"b c #808080",
"a c #ffff00",
"................",
"................",
".....####.......",
".....#aa######..",
"...####aaaaaa#b.",
"...#aa######a#b.",
".####aaaaaa#a#b.",
".#aa######a#a#b.",
".#aaaaaaa#a###b.",
".#aaaaaaa#a#bbb.",
".#aaaaaaa###b...",
".#aaaaaaa#bbb...",
".#########b.....",
"..bbbbbbbbb.....",
"................"};
