/* XPM */
const char *gXpm_folder_nopeer_16x15[]={
"16 15 5 1",
". c None",
"# c #000000",
"c c #a0a0a0",
"a c #c3c3c3",
"b c #dcdcdc",
"................",
"................",
"................",
"...##...........",
"...##a....b#....",
".######..b#c....",
".######ab#c.....",
"..a##aaa#c......",
"...##ab#c.####..",
"....aa#c..####a.",
"....b#c....aaaa.",
"....#c..........",
"................",
"................",
"................"};
