/* XPM */
const char *gXpm_folder_folders_24x24[]={
"24 24 5 1",
". c None",
"# c #000000",
"b c #808080",
"c c #c0c000",
"a c #ffff00",
"........................",
"........................",
".........#####..........",
".........#aaa########...",
".........#aaaaaaaaaa#b..",
"......#####aaaaaaaaa#b..",
"......#aaa########aa#b..",
"......#aaaaaaaaaa#ca#b..",
"...#####aaaaaaaaa#ca#b..",
"...#aaa########aa#ca#b..",
"...#aaaaaaaaaa#ca#ca#b..",
"...#aaaaaaaaaa#ca####b..",
"...#aaaaaaaaaa#ca#bbbb..",
"...#aaaaaaaaaa#ca#b.....",
"...#aaaaaaaaaa####b.....",
"...#aaaaaaaaaa#bbbb.....",
"...#aaaaaaaaaa#b........",
"...############b........",
"....bbbbbbbbbbbb........",
"........................",
"........................",
"........................",
"........................",
"........................"};
