/* XPM */
const char *gXpm_folder_equal_24x24[]={
"24 24 5 1",
". c None",
"b c #000000",
"a c #c3c3c3",
"c c #dcdcdc",
"# c #ffffff",
"........................",
"........................",
"........................",
"........................",
"...########...#######...",
"...########a..#######a..",
"...########a..#######a..",
"...########a..#######a..",
"...#bbbbbbbbbbbbbbb##a..",
"...#bbbbbbbbbbbbbbbc#a..",
"...##ccccccaaacccccc#a..",
"...########a..#######a..",
"...########a..#######a..",
"...#bbbbbbbbbbbbbbb##a..",
"...#bbbbbbbbbbbbbbbc#a..",
"...##ccccccaaacccccc#a..",
"...########a..#######a..",
"...########a..#######a..",
"...########a..#######a..",
"...########a..#######a..",
"....aaaaaaaa...aaaaaaa..",
"........................",
"........................",
"........................"};
