/* XPM */
const char * gXpm_line_numbers_24x24[]={
"24 24 125 2",
"Qt c None",
".# c #000000",
"#Q c #181717",
"#E c #191717",
".9 c #191818",
".L c #1a1919",
".6 c #1a1a1a",
"#B c #323030",
".W c #333131",
".0 c #343333",
".T c #353434",
"#Z c #494444",
"#Y c #494545",
"#X c #4a4545",
"#W c #4a4646",
"#V c #4a4747",
"#U c #4b4747",
"#o c #4b4848",
"#P c #4c4848",
"#T c #4d4a4a",
".K c #4e4b4b",
"#S c #4e4c4c",
".z c #4f4c4c",
".y c #4f4d4d",
".D c #535353",
"#f c #656060",
"#e c #666161",
".G c #6a6868",
".P c #6e6d6d",
".u c #6f6e6e",
"#0 c #797171",
".A c #827e7e",
"#N c #838080",
".x c #858181",
"#y c #979090",
"#n c #989292",
".7 c #9c9696",
"#d c #9c9797",
"#H c #9d9898",
"#v c #9e9a9a",
"#G c #9f9a9a",
"#r c #a09c9c",
"#i c #a09d9d",
"#a c #a19e9e",
".4 c #a29f9f",
".Y c #a3a0a0",
".Q c #a4a1a1",
".E c #a4a2a2",
".O c #a6a5a5",
".r c #b1aaaa",
"#s c #b2abab",
".v c #c1bfbf",
"#L c #c5baba",
"#C c #cac0c0",
"#x c #cbc3c3",
"#J c #ccc3c3",
".8 c #ccc4c4",
".M c #cdc6c6",
".V c #cfc7c7",
".B c #d0c9c9",
".J c #d1caca",
"#c c #d2caca",
".H c #d3cdcd",
".U c #d3cece",
".F c #d5d1d1",
"#6 c #d7c8c8",
"#1 c #d9caca",
"#R c #dacccc",
"#M c #dbcece",
"#F c #dccfcf",
"#5 c #ddd0d0",
"#A c #ded1d1",
"#t c #dfd3d3",
"#p c #e0d4d4",
"#z c #e0d5d5",
"#4 c #e1d5d5",
"#g c #e1d6d6",
"#D c #e2d6d6",
"#K c #e2d7d7",
"#. c #e2d8d8",
"#3 c #e3d9d9",
".3 c #e4d9d9",
"#2 c #e4dada",
".X c #e5dbdb",
"#O c #e6dcdc",
".N c #e6dddd",
"#m c #e7dddd",
".C c #e7dede",
".2 c #e8dfdf",
"#I c #e8e0e0",
".t c #e9e0e0",
".1 c #e9e1e1",
".q c #eae2e2",
"#l c #eae3e3",
"#w c #ebe3e3",
".p c #ebe4e4",
"#k c #ece4e4",
".o c #ece5e5",
".I c #ede6e6",
".n c #eee7e7",
".5 c #eee8e8",
".m c #efe9e9",
".Z c #efeaea",
"#j c #f0eaea",
".l c #f0ebeb",
".S c #f1ebeb",
"#b c #f1ecec",
".k c #f2eded",
"#u c #f2eeee",
".j c #f3eeee",
".w c #f3efef",
"#q c #f4efef",
".i c #f4f0f0",
".R c #f4f1f1",
"#h c #f5f1f1",
".h c #f5f2f2",
".s c #f6f2f2",
"## c #f6f3f3",
".g c #f7f4f4",
".f c #f8f6f6",
".e c #f9f7f7",
".d c #fbf9f9",
".c c #fcfbfb",
".b c #fdfdfd",
".a c #ffffff",
"QtQtQtQtQtQtQtQtQtQtQtQtQtQtQtQtQtQtQtQtQtQtQtQt",
"QtQtQtQtQtQtQtQtQtQtQtQtQtQtQtQtQtQtQtQtQtQtQtQt",
"QtQtQtQtQtQtQtQtQtQtQtQtQtQtQtQtQtQtQtQtQtQtQtQt",
"QtQt.#.#.#.#.#.#.#.#.#.#.#.#.#.#.#.#.#.#.#QtQtQt",
"QtQt.#.a.b.c.d.e.f.g.h.i.j.k.l.m.n.o.p.q.#.rQtQt",
"QtQt.#.b.c.d.e.f.g.s.i.j.k.l.m.n.o.p.q.t.#.rQtQt",
"QtQt.#.c.d.u.v.g.s.i.w.k.l.x.y.z.A.B.t.C.#.rQtQt",
"QtQt.#.D.#.#.E.s.i.w.k.F.G.H.I.J.K.L.M.N.#.rQtQt",
"QtQt.#.O.P.#.Q.R.w.k.S.T.U.I.p.q.V.#.W.X.#.rQtQt",
"QtQt.#.f.E.#.Y.w.k.S.Z.#.0.J.q.1.2.#.#.3.#.rQtQt",
"QtQt.#.g.E.#.4.k.S.Z.5.6.#.7.1.2.8.#.9#..#.rQtQt",
"QtQt.###.Y.##a#b.Z.5.I#c#d.1.2.N#e.##f#g.#.rQtQt",
"QtQt.##h.4.##i#j.5.I#k#l.1.2#m#n.##o#g#p.#.rQtQt",
"QtQt.##q#a.##r.5.I.o#l.1.2#m#s.##o#g#p#t.#.rQtQt",
"QtQt.##u#i.##v.I.o#w.1.2#m#x.9#y#g#z#t#A.#.rQtQt",
"QtQt.##b#r.##v.o#w.1.2.C#x#B#C#D#z#t#E#F.#.rQtQt",
"QtQt.##j#G.##H#w.1#I.C#J#B#C#K#z#t#L.##M.#.rQtQt",
"QtQt.#.m#N.#.A.1#I.C#O#P.#.#.#.#.#.##Q#R.#.rQtQt",
"QtQt.#.y#S.K.K#T#T#O.r#o#U#V#W#X#Y#Z#0#1.#.rQtQt",
"QtQt.#.o#w.q#I.C#O#2#3#K#4#t#A#5#M#R#1#6.#.rQtQt",
"QtQt.#.#.#.#.#.#.#.#.#.#.#.#.#.#.#.#.#.#.#.rQtQt",
"QtQtQt.r.r.r.r.r.r.r.r.r.r.r.r.r.r.r.r.r.r.rQtQt",
"QtQtQtQtQtQtQtQtQtQtQtQtQtQtQtQtQtQtQtQtQtQtQtQt",
"QtQtQtQtQtQtQtQtQtQtQtQtQtQtQtQtQtQtQtQtQtQtQtQt"};
