/* XPM */
const char * gXpm_pilcrow_24x24[]={
"24 24 7 1",
". c None",
"d c #000000",
"b c #585858",
"e c #808080",
"# c #a0a0a0",
"c c #c3c3c3",
"a c #ffffff",
"........................",
"........................",
"..###################...",
"..#aaaaaaaaaaaaaaaaa#b..",
"..#aaaacddddddddb#aa#b..",
"..#aaaddddd###ddcaaa#b..",
"..#aacdddddcaaddaaaa#b..",
"..#aaddddddcaaddaaaa#b..",
"..#aaedddddcaaddaaaa#b..",
"..#aaadddddcaaddaaaa#b..",
"..#aaaaddddcaaddaaaa#b..",
"..#aaaaaacdcaaddaaaa#b..",
"..#aaaaaaadcaaddaaaa#b..",
"..#aaaaaaadcaaddaaaa#b..",
"..#aaaaaaadcaaddaaaa#b..",
"..#aaaaaaadcaaddaaaa#b..",
"..#aaaaaaadcaaddaaaa#b..",
"..#aaaaaaabcaadcaaaa#b..",
"..#aaaaaaacaaacaaaaa#b..",
"..#aaaaaaaaaaaaaaaaa#b..",
"..###################b..",
"...bbbbbbbbbbbbbbbbbbb..",
"........................",
"........................"};
