/* XPM */
const char * gXpm_questionmark_16x16[] = {
"16 16 22 1",
" 	c None",
".	c #A5A5A5",
"+	c #2A2A2A",
"@	c #050505",
"#	c #303030",
"$	c #CBCBCB",
"%	c #545454",
"&	c #D1D1D1",
"*	c #F7F7F7",
"=	c #979797",
"-	c #252525",
";	c #EFEFEF",
">	c #090909",
",	c #FDFDFD",
"'	c #585858",
")	c #5D5D5D",
"!	c #797979",
"~	c #353535",
"{	c #F1F1F1",
"]	c #0E0E0E",
"^	c #E4E4E4",
"/	c #000000",
"                ",
"                ",
"                ",
"  .+@#$  .+@#$  ",
"  %&*=-  %&*=-  ",
"     ;>     ;>  ",
"    ,')    ,')  ",
"    !~{    !~{  ",
"    ]^     ]^   ",
"    /      /    ",
"                ",
"    /      /    ",
"    /      /    ",
"                ",
"                ",
"                "};
