/* XPM */
const char * gXpm_save_24x24[] = {
"24 24 5 1",
" 	c None",
".	c #000000",
"+	c #FFFFFF",
"@	c #999933",
"#	c #999999",
"                        ",
"                        ",
"                        ",
"                        ",
"    ................    ",
"    .@.##########.+.    ",
"    .@.##########...    ",
"    .@.##########.@.    ",
"    .@.##########.@.    ",
"    .@.##########.@.    ",
"    .@.##########.@.    ",
"    .@@..........@@.    ",
"    .@@@@@@@@@@@@@@.    ",
"    .@............@.    ",
"    .@........###.@.    ",
"    .@........###.@.    ",
"    .@........###.@.    ",
"    .@........###.@.    ",
"    .@........###.@.    ",
"     ...............    ",
"                        ",
"                        ",
"                        ",
"                        "};
