/* XPM */
const char * sg_32x32_xpm[] = {
"32 32 42 1",
" 	c None",
".	c #AFAFAF",
"+	c #131616",
"@	c #040707",
"#	c #808181",
"$	c #9FA0A0",
"%	c #3C501B",
"&	c #86B235",
"*	c #587525",
"=	c #8F9090",
"-	c #99CA3C",
";	c #4F6922",
">	c #222525",
",	c #6A8D2B",
"'	c #90BE39",
")	c #202C11",
"!	c #525353",
"~	c #323434",
"{	c #EFEFEF",
"]	c #CFCFCF",
"^	c #BFBFBF",
"/	c #DFDFDF",
"(	c #424343",
"_	c #717272",
":	c #051214",
"<	c #1197B2",
"[	c #14B8DA",
"}	c #0D6B7E",
"|	c #616262",
"1	c #0C6071",
"2	c #0E768B",
"3	c #293814",
"4	c #0D130A",
"5	c #618128",
"6	c #7DA532",
"7	c #061D21",
"8	c #108CA5",
"9	c #08333C",
"0	c #0A4956",
"a	c #07282F",
"b	c #13ADCD",
"c	c #74992F",
"          .+@@#                 ",
"         $@%&*@=                ",
"        $@%---;>                ",
"       $@%----,@                ",
"      $@%----')!                ",
"     $@%----')~{                ",
"    $@%----')~{   ]^/           ",
"   $@%----')~{  {(@@@_          ",
"  $@%----')~{   _:<[}@|         ",
" $@%----')~{    +1[[[2@|        ",
"$@%----')~{     +}[[[[2@|       ",
"+%-----3>{      _:<[[[[2@|      ",
"@&-----@.       {~:<[[[[2@|     ",
"@*-----4~{       {~:<[[[[2@|    ",
"#@5----64~{       {~:<[[[[2@|   ",
" |@5----64~{       {~:<[[[[2@|  ",
"  |@5----64~{       {~:<[[[[2@| ",
"   |@5----64~{       {~:<[[[[2@_",
"    |@5----64~{       {~7[[[[[}@",
"     |@5----64~{       .@[[[[[8@",
"      |@5----64#      ]+9[[[[[0+",
"       |@5----*>     ]+ab[[[[0@$",
"        |@5---5+    ]+ab[[[[0@$ ",
"         |@5-c4_   ]+ab[[[[0@$  ",
"          _@@@({  ]+ab[[[[0@$   ",
"           ]^]   ]+ab[[[[0@$    ",
"                {+ab[[[[0@$     ",
"                |7b[[[[0@$      ",
"                +2[[[[0@$       ",
"                >1[[[0@$        ",
"                #@180@$         ",
"                 #+@+$          "};
