/* XPM */
const char * gXpm_tab2_24x24[]={
"24 24 3 1",
". c None",
"a c #000000",
"# c #ffffff",
"........................",
"........................",
"........................",
".######################.",
".####aaaaa###########a#.",
".###a####aaa#########a#.",
".##a######aa#########a#.",
".#aa######aaa########a#.",
".#aaa#####aaa########a#.",
".#aaaa####aaa#####a##a#.",
".##aa#####aaa#####aa#a#.",
".########aaa######aaaa#.",
".########aa##aaaaaaaaa#.",
".#######aa########aaaa#.",
".######aa#########aa#a#.",
".#####a#####a#####a##a#.",
".####a######a########a#.",
".###a#######a########a#.",
".##aaaaaaaaaa########a#.",
".#aaaaaaaaaaa########a#.",
".#aaaaaaaaaa#########a#.",
".######################.",
"........................",
"........................"};
