/* XPM */
const char * gXpm_tab4_24x24[]={
"24 24 3 1",
". c None",
"a c #000000",
"# c #ffffff",
"........................",
"........................",
"........................",
".######################.",
".########aa##########a#.",
".#######aaa##########a#.",
".#######aaa##########a#.",
".######aaaa##########a#.",
".#####aaaaa##########a#.",
".#####a#aaa#######a##a#.",
".####a##aaa#######aa#a#.",
".###aa##aaa#######aaaa#.",
".##aa###aaa##aaaaaaaaa#.",
".##a####aaa#######aaaa#.",
".#a#####aaa#######aa#a#.",
".#aaaaaaaaaaaa####a##a#.",
".#######aaa##########a#.",
".#######aaa##########a#.",
".#######aaa##########a#.",
".#######aaa##########a#.",
".#####aaaaaaa########a#.",
".######################.",
"........................",
"........................"};
