/* XPM */
const char * gXpm_tab8_24x24[]={
"24 24 3 1",
". c None",
"a c #000000",
"# c #ffffff",
"........................",
"........................",
"........................",
".######################.",
".#####aaaa###########a#.",
".###aa####aa#########a#.",
".##aa######a#########a#.",
".##aa######aa########a#.",
".##aa######aa########a#.",
".##aaa#####a######a##a#.",
".###aaaa##a#######aa#a#.",
".###aaaaaaa#######aaaa#.",
".####aaaaaaa#aaaaaaaaa#.",
".##aa####aaaa#####aaaa#.",
".##a#######aa#####aa#a#.",
".#aa#######aa#####a##a#.",
".#aa########a########a#.",
".#aa#######aa########a#.",
".##aa######a#########a#.",
".##aaa###aa##########a#.",
".#####aaa############a#.",
".######################.",
"........................",
"........................"};
