/* XPM */
static const char * close20_xpm[] = {
"20 20 144 2",
"  	c None",
". 	c #6A6A6A",
"+ 	c #2F2F2F",
"@ 	c #101010",
"# 	c #030303",
"$ 	c #101011",
"% 	c #313131",
"& 	c #686868",
"* 	c #8B8C8B",
"= 	c #181818",
"- 	c #333333",
"; 	c #747474",
"> 	c #999999",
", 	c #A3A2A3",
"' 	c #919292",
") 	c #686968",
"! 	c #272728",
"~ 	c #1B1B1B",
"{ 	c #808080",
"] 	c #828282",
"^ 	c #0F0F0F",
"/ 	c #7A7A7A",
"( 	c #ABABAB",
"_ 	c #A9A9A9",
": 	c #A6A6A6",
"< 	c #A4A4A4",
"[ 	c #A1A1A1",
"} 	c #A09F9F",
"| 	c #9C9D9D",
"1 	c #626262",
"2 	c #0D0D0D",
"3 	c #767676",
"4 	c #9C9C9C",
"5 	c #888788",
"6 	c #A8A9A8",
"7 	c #A7A6A6",
"8 	c #A2A2A2",
"9 	c #9F9FA0",
"0 	c #9D9D9D",
"a 	c #9B9B9B",
"b 	c #989898",
"c 	c #3F3F3F",
"d 	c #5A5A5A",
"e 	c #A9A8A9",
"f 	c #424242",
"g 	c #000000",
"h 	c #777877",
"i 	c #696969",
"j 	c #464646",
"k 	c #959696",
"l 	c #939394",
"m 	c #3E3E3E",
"n 	c #414040",
"o 	c #0B0B0B",
"p 	c #1C1C1C",
"q 	c #959595",
"r 	c #121212",
"s 	c #131313",
"t 	c #8F908F",
"u 	c #939393",
"v 	c #919191",
"w 	c #828182",
"x 	c #090909",
"y 	c #737474",
"z 	c #373737",
"A 	c #A3A4A4",
"B 	c #A2A1A2",
"C 	c #656565",
"D 	c #1E1E1E",
"E 	c #6A6A69",
"F 	c #8E8E8E",
"G 	c #8C8C8C",
"H 	c #1F1F1F",
"I 	c #5C5C5C",
"J 	c #4F4F4F",
"K 	c #A6A7A6",
"L 	c #A4A4A3",
"M 	c #A1A2A1",
"N 	c #9F9F9F",
"O 	c #9C9C9D",
"P 	c #272727",
"Q 	c #89898A",
"R 	c #323232",
"S 	c #535252",
"T 	c #575857",
"U 	c #525252",
"V 	c #989899",
"W 	c #232323",
"X 	c #2C2C2C",
"Y 	c #909191",
"Z 	c #8E8F8E",
"` 	c #8C8B8B",
" .	c #8A898A",
"..	c #878787",
"+.	c #343434",
"@.	c #4E4F4F",
"#.	c #3C3C3C",
"$.	c #9A9A9A",
"%.	c #545453",
"&.	c #595959",
"*.	c #8B8C8C",
"=.	c #8A8A8A",
"-.	c #878788",
";.	c #858585",
">.	c #8F9090",
",.	c #9A9B9A",
"'.	c #818181",
").	c #050505",
"!.	c #242424",
"~.	c #8D8D8C",
"{.	c #1A1A1A",
"].	c #080808",
"^.	c #79797A",
"/.	c #858584",
"(.	c #7B7B7B",
"_.	c #5E5E5E",
":.	c #969696",
"<.	c #212121",
"[.	c #7C7D7C",
"}.	c #737273",
"|.	c #252525",
"1.	c #858484",
"2.	c #838282",
"3.	c #414141",
"4.	c #2E2E2E",
"5.	c #818281",
"6.	c #807F80",
"7.	c #959695",
"8.	c #909091",
"9.	c #8A8A89",
"0.	c #636363",
"a.	c #6D6D6D",
"b.	c #6F6F6F",
"c.	c #909190",
"d.	c #8A8989",
"e.	c #111111",
"f.	c #626261",
"g.	c #7C7C7C",
"h.	c #838383",
"i.	c #777777",
"j.	c #585757",
"k.	c #616161",
"l.	c #525152",
"m.	c #0C0C0C",
"                                        ",
"                                        ",
"              . + @ # $ % &             ",
"          * = - ; > , ' ) ! ~ {         ",
"        ] ^ / ( _ : < [ } | 1 2 3       ",
"      4 @ 5 ( 6 7 < 8 9 0 a b . @       ",
"      c d ( e f g h } i g j k l m n     ",
"      o < 6 : > 2 p q r s t u v w x     ",
"    y z e 7 A B C g D g E u v F G H C   ",
"    I J K L M N O P g % u v F G Q R S   ",
"    T U < 8 N | V W g X Y Z `  ...+.@.  ",
"    & #.[ N | $.%.g D g &.*.=.-.;.W d   ",
"    >.^ 0 4 ,.'.).!.~.{.].^.../.(.].    ",
"      X _.$.:.<.).[.F }.# |.1.2.3.4.    ",
"      5.^ 6.7.u 8.F ` 9.../.] 0.o a.    ",
"        C @ b.c.F *.d...1.] &.o d       ",
"          a.e.+ f.g.h.i.j.!.r k.        ",
"              l.!.m.# m.|.@.            ",
"                                        ",
"                                        "};
