/* XPM */
static const char * down20_xpm[] = {
"20 20 98 2",
"  	c None",
". 	c #464646",
"+ 	c #191919",
"@ 	c #181818",
"# 	c #171717",
"$ 	c #161616",
"% 	c #151515",
"& 	c #848584",
"* 	c #878686",
"= 	c #0C0C0C",
"- 	c #818181",
"; 	c #7E7E7F",
"> 	c #7D7D7D",
", 	c #7B7B7B",
"' 	c #797979",
") 	c #777777",
"! 	c #767676",
"~ 	c #747473",
"{ 	c #727272",
"] 	c #707070",
"^ 	c #343434",
"/ 	c #292A29",
"( 	c #737373",
"_ 	c #ADADAD",
": 	c #ABABAB",
"< 	c #A8A8A9",
"[ 	c #A6A6A6",
"} 	c #A3A3A3",
"| 	c #A1A1A1",
"1 	c #9F9F9E",
"2 	c #9C9C9C",
"3 	c #999A9A",
"4 	c #909090",
"5 	c #0D0D0D",
"6 	c #7A7A7A",
"7 	c #818180",
"8 	c #1C1C1C",
"9 	c #A9A8A9",
"0 	c #A8A9A8",
"a 	c #A5A6A6",
"b 	c #A3A3A4",
"c 	c #99999A",
"d 	c #979798",
"e 	c #504F50",
"f 	c #323232",
"g 	c #262626",
"h 	c #6F6E6F",
"i 	c #A3A4A3",
"j 	c #9E9E9E",
"k 	c #9A9A9A",
"l 	c #8F8F8E",
"m 	c #787878",
"n 	c #1B1B1B",
"o 	c #A2A2A3",
"p 	c #949494",
"q 	c #4F4F4F",
"r 	c #313131",
"s 	c #242424",
"t 	c #6A6A6A",
"u 	c #9E9E9F",
"v 	c #979897",
"w 	c #949594",
"x 	c #8C8C8D",
"y 	c #767575",
"z 	c #747474",
"A 	c #9B9B9C",
"B 	c #9A999A",
"C 	c #979797",
"D 	c #959495",
"E 	c #929292",
"F 	c #4E4D4E",
"G 	c #303030",
"H 	c #222222",
"I 	c #676767",
"J 	c #939293",
"K 	c #8A8A8A",
"L 	c #6E6D6D",
"M 	c #1A1A1A",
"N 	c #939493",
"O 	c #908F90",
"P 	c #4C4D4D",
"Q 	c #2E2E2E",
"R 	c #1F1F1F",
"S 	c #626263",
"T 	c #878787",
"U 	c #0C0D0D",
"V 	c #717171",
"W 	c #8C8C8C",
"X 	c #4C4B4C",
"Y 	c #2D2D2D",
"Z 	c #1D1D1D",
"` 	c #585858",
" .	c #6E6E6E",
"..	c #626262",
"+.	c #030303",
"@.	c #2C2C2C",
"#.	c #6C6D6C",
"$.	c #757675",
"                                        ",
"                                        ",
"                                        ",
"    . + @ @ @ # # # $ $ $ % % % $ &     ",
"    * = - - ; > , ' ) ! ~ { ] ^ ^       ",
"      / ( _ : < [ } | 1 2 3 4 5 6       ",
"      7 8 9 0 a b | 1 2 c d e f         ",
"        g h [ i | j 2 k d l 5 m         ",
"        ' n o | 1 2 c d p q r           ",
"          s t u 2 k v w x 5 y           ",
"          z n A B C D E F G             ",
"            H I C w J K 5 (             ",
"            L M N E O P Q               ",
"              R S 4 T U V               ",
"              I + W X Y                 ",
"                Z ` =  .                ",
"                ..+.@.                  ",
"                  8 #.                  ",
"                  $.                    ",
"                                        "};
