/* XPM */
static const char * up20_xpm[] = {
"20 20 109 2",
"  	c None",
". 	c #6E6E6E",
"+ 	c #9A9A9A",
"@ 	c #0B0B0B",
"# 	c #686969",
"$ 	c #555556",
"% 	c #1F1F1F",
"& 	c #181818",
"* 	c #999999",
"= 	c #0D0D0D",
"- 	c #8B8C8B",
"; 	c #272727",
"> 	c #656465",
", 	c #555555",
"' 	c #3C3C3C",
") 	c #A1A1A0",
"! 	c #767576",
"~ 	c #171717",
"{ 	c #9B9A9A",
"] 	c #0E0E0E",
"^ 	c #898989",
"/ 	c #9F9F9F",
"( 	c #9C9C9C",
"_ 	c #252525",
": 	c #616161",
"< 	c #3A3A3A",
"[ 	c #9F9E9E",
"} 	c #999A99",
"| 	c #6F6F6F",
"1 	c #161616",
"2 	c #909090",
"3 	c #868687",
"4 	c #9A999A",
"5 	c #989797",
"6 	c #949595",
"7 	c #232323",
"8 	c #5D5D5D",
"9 	c #545454",
"0 	c #393939",
"a 	c #99999A",
"b 	c #979797",
"c 	c #949495",
"d 	c #929292",
"e 	c #6A6A6A",
"f 	c #989798",
"g 	c #848484",
"h 	c #9A9A99",
"i 	c #8D8E8E",
"j 	c #212121",
"k 	c #585858",
"l 	c #A1A1A1",
"m 	c #373737",
"n 	c #979897",
"o 	c #959595",
"p 	c #939292",
"q 	c #8D8D8E",
"r 	c #8B8B8B",
"s 	c #656464",
"t 	c #151515",
"u 	c #818181",
"v 	c #939392",
"w 	c #8E8E8D",
"x 	c #868686",
"y 	c #545353",
"z 	c #535353",
"A 	c #353535",
"B 	c #959495",
"C 	c #929293",
"D 	c #908F8F",
"E 	c #8D8D8D",
"F 	c #5F5E5E",
"G 	c #141414",
"H 	c #7A7B7B",
"I 	c #949494",
"J 	c #7E7F7E",
"K 	c #838383",
"L 	c #7F7F7E",
"M 	c #1D1D1D",
"N 	c #4F4F4F",
"O 	c #080808",
"P 	c #323232",
"Q 	c #323131",
"R 	c #303131",
"S 	c #303030",
"T 	c #2F2F2F",
"U 	c #2E2E2E",
"V 	c #2E2D2D",
"W 	c #2D2D2D",
"X 	c #2C2C2C",
"Y 	c #2B2B2A",
"Z 	c #2A2A2A",
"` 	c #131313",
" .	c #747373",
"..	c #5C5C5C",
"+.	c #4E4E4E",
"@.	c #4D4D4D",
"#.	c #4C4C4B",
"$.	c #4A4A4A",
"%.	c #494949",
"&.	c #484848",
"*.	c #464746",
"=.	c #454545",
"-.	c #444444",
";.	c #434343",
">.	c #424241",
",.	c #404040",
"'.	c #3F3F3F",
").	c #3D3D3D",
"!.	c #676767",
"                                        ",
"                                        ",
"                  .                     ",
"                + @ #                   ",
"                $ % &                   ",
"              * = - ; >                 ",
"              , ' ) ! ~                 ",
"            { ] ^ / ( _ :               ",
"            , < [ ( } | 1 2             ",
"          + = 3 ( 4 5 6 7 8             ",
"          9 0 ( a b c d e 1 ^           ",
"        f = g h b 6 d 2 i j k           ",
"      l 9 m a n o p 2 q r s t           ",
"      5 ] u b o v 2 w r ^ x % y         ",
"      z A b B C D E r ^ x g F G H       ",
"    I ] J o C 2 w r ^ 3 K u L M N       ",
"    z O P Q R S T U V W X Y Z ~ `  .    ",
"    ..+.@.#.$.%.&.*.=.-.;.>.,.'.).!.    ",
"                                        ",
"                                        "};
