/* XPM */
static const char * error_xpm[] = {
"16 15 95 2",
"  	c None",
". 	c #E61011",
"+ 	c #E51010",
"@ 	c #E31010",
"# 	c #E21010",
"$ 	c #E00F10",
"% 	c #DF1010",
"& 	c #E81111",
"* 	c #E71111",
"= 	c #E41010",
"- 	c #E11010",
"; 	c #DF100F",
"> 	c #DD0F10",
", 	c #DC0F0F",
"' 	c #DA0F0F",
") 	c #E81011",
"! 	c #E71010",
"~ 	c #E0100F",
"{ 	c #DD0F0F",
"] 	c #DC100F",
"^ 	c #DB0F0F",
"/ 	c #D90F0F",
"( 	c #D70F0F",
"_ 	c #E61010",
": 	c #E2B010",
"< 	c #E04C10",
"[ 	c #DD460F",
"} 	c #E0AB0F",
"| 	c #D8100F",
"1 	c #D50F0E",
"2 	c #E20F10",
"3 	c #E0390F",
"4 	c #E2C710",
"5 	c #DC120E",
"6 	c #DB110E",
"7 	c #E1C110",
"8 	c #D92E0E",
"9 	c #D60F0F",
"0 	c #D40E0F",
"a 	c #D30F0F",
"b 	c #E09B10",
"c 	c #DF7310",
"d 	c #DE7010",
"e 	c #DD860F",
"f 	c #D40F0F",
"g 	c #D30F0E",
"h 	c #D10E0F",
"i 	c #E4100F",
"j 	c #E10F0F",
"k 	c #E01010",
"l 	c #DE0F10",
"m 	c #DE530F",
"n 	c #E1C810",
"o 	c #E1D20F",
"p 	c #D9300F",
"q 	c #D10F0E",
"r 	c #D00F0F",
"s 	c #DF0F0F",
"t 	c #E1B510",
"u 	c #DC650F",
"v 	c #DC6D0F",
"w 	c #DE9710",
"x 	c #D10F0F",
"y 	c #D00F0E",
"z 	c #CE0E0E",
"A 	c #DE100F",
"B 	c #DC450F",
"C 	c #E1CB0F",
"D 	c #D7120E",
"E 	c #D6110E",
"F 	c #E0C310",
"G 	c #D4350F",
"H 	c #D20E0E",
"I 	c #CE0E0F",
"J 	c #CD0E0F",
"K 	c #DE1010",
"L 	c #DB100F",
"M 	c #DA570F",
"N 	c #D50F0F",
"O 	c #D6450F",
"P 	c #DEAE0F",
"Q 	c #D00E0E",
"R 	c #CD0F0E",
"S 	c #DD100F",
"T 	c #D80F0F",
"U 	c #D20E0F",
"V 	c #D00E0F",
"W 	c #CF0E0F",
"X 	c #CB0E0E",
"Y 	c #D60E0F",
"Z 	c #D20F0E",
"` 	c #CF0E0E",
" .	c #CD0E0E",
"..	c #CC0E0E",
"+.	c #CF0F0E",
"                                ",
"          . + @ # $ %           ",
"      & * . = # - ; > , '       ",
"    ) ! + = # ~ % { ] ^ / (     ",
"    ! _ = : < ; { [ } | | 1     ",
"  ! _ = 2 3 4 5 6 7 8 ( 9 0 a   ",
"  + = # - ; b c d e | 9 f g h   ",
"  i @ j k l m n o p 9 f a q r   ",
"  @ # $ s > t u v w f g x y z   ",
"  2 % A { B C D E F G H r I J   ",
"    K { L t M ( N O P Q z R     ",
"    S ^ / T ( N a U V W R X     ",
"      ' T ( Y a Z r `  ...      ",
"          N f Z x +. .          ",
"                                "};
