/* XPM */
static const char * flat_file_notequal_xpm[] = {
"16 15 133 2",
"  	c None",
". 	c #F0F0F0",
"+ 	c #EFEFEF",
"@ 	c #EDEDED",
"# 	c #EBEBEB",
"$ 	c #E9E9E9",
"% 	c #E7E7E7",
"& 	c #E5E5E5",
"* 	c #E3E3E2",
"= 	c #E1E1E1",
"- 	c #DEDFDF",
"; 	c #DCDCDD",
"> 	c #DBDBDA",
", 	c #E3E3E3",
"' 	c #E1E1E0",
") 	c #DFDEDF",
"! 	c #DCDDDD",
"~ 	c #DADBDA",
"{ 	c #D9D9D8",
"] 	c #D6D6D6",
"^ 	c #EDEEED",
"/ 	c #ECEBEC",
"( 	c #E8E7E7",
"_ 	c #E6E5E5",
": 	c #DFDFDF",
"< 	c #DDDDDD",
"[ 	c #DBDBDB",
"} 	c #D9D9D9",
"| 	c #D7D7D6",
"1 	c #D4D5D4",
"2 	c #D2D3D2",
"3 	c #E9EAE9",
"4 	c #E4E3E3",
"5 	c #E2E1E1",
"6 	c #D5D5D4",
"7 	c #D3D3D2",
"8 	c #D1D1D0",
"9 	c #CECFCE",
"0 	c #E9EAEA",
"a 	c #E7E8E8",
"b 	c #E5E6E5",
"c 	c #E1E2E1",
"d 	c #DDDEDD",
"e 	c #D7D7D7",
"f 	c #D20000",
"g 	c #D3D3D3",
"h 	c #D1D1D1",
"i 	c #CFCFCF",
"j 	c #CDCDCC",
"k 	c #CBCBCA",
"l 	c #E8E8E8",
"m 	c #E6E6E5",
"n 	c #E4E4E3",
"o 	c #E0DFDF",
"p 	c #C9C9C8",
"q 	c #E6E6E6",
"r 	c #E2E2E1",
"s 	c #DFE0DF",
"t 	c #CDCDCD",
"u 	c #CBCBCB",
"v 	c #CAC9C8",
"w 	c #C6C7C6",
"x 	c #E1E2E2",
"y 	c #DFE0E0",
"z 	c #DEDDDE",
"A 	c #DCDBDC",
"B 	c #D9DAD9",
"C 	c #D7D8D7",
"D 	c #CFD0CF",
"E 	c #C7C8C6",
"F 	c #C5C5C4",
"G 	c #E0DFE0",
"H 	c #DEDEDE",
"I 	c #DBDCDC",
"J 	c #C9CAC9",
"K 	c #C7C7C6",
"L 	c #C6C5C4",
"M 	c #C3C3C2",
"N 	c #E0E0DF",
"O 	c #DCDCDC",
"P 	c #DADAD9",
"Q 	c #D2D1D2",
"R 	c #D0D0CF",
"S 	c #CECECD",
"T 	c #CBCCCB",
"U 	c #CACAC8",
"V 	c #C7C8C7",
"W 	c #C6C5C5",
"X 	c #C3C3C3",
"Y 	c #C1C1C1",
"Z 	c #DADADA",
"` 	c #D8D8D8",
" .	c #D5D5D5",
"..	c #D1D2D2",
"+.	c #D0D0D0",
"@.	c #CCCCCB",
"#.	c #CACAC9",
"$.	c #C7C7C7",
"%.	c #C6C6C5",
"&.	c #C1C2C1",
"*.	c #BFBFBF",
"=.	c #D8D8D7",
"-.	c #D6D6D5",
";.	c #D4D4D4",
">.	c #D2D2D1",
",.	c #D0CFCF",
"'.	c #CECECE",
").	c #C3C4C2",
"!.	c #C0C0BF",
"~.	c #BDBDBD",
"{.	c #D8D9D7",
"].	c #D7D6D6",
"^.	c #CCCCCC",
"/.	c #C8C8C7",
"(.	c #C5C6C5",
"_.	c #C2C2C1",
":.	c #BDBEBD",
"<.	c #BCBCBB",
"[.	c #D6D7D6",
"}.	c #D2D2D2",
"|.	c #D0D1CF",
"1.	c #CBCACA",
"2.	c #C6C6C6",
"3.	c #C4C4C4",
"4.	c #BEBEBD",
"5.	c #BABAB9",
"6.	c #D3D2D2",
"7.	c #CECFCD",
"8.	c #CCCDCC",
"9.	c #C8C8C8",
"0.	c #C4C4C3",
"a.	c #BEBEBE",
"b.	c #B7B8B7",
". + @ # $ % & * = - ; >         ",
"+ @ # $ % & , ' ) ! ~ { ]       ",
"^ / $ ( _ , = : < [ } | 1 2     ",
"/ 3 ( & 4 5 : < [ { | 6 7 8 9   ",
"0 a b 4 c : d [ } e f g h i j k ",
"l m n 5 o < [ } | f f h i j k p ",
"q n r s f f f f f f f f t u v w ",
"n x y z A B C f f h D t k v E F ",
"r G H I f f f f f f f f J K L M ",
"N H O P C f f Q R S T U V W X Y ",
"H O Z `  .f ..+.S @.#.$.%.X &.*.",
"O Z =.-.;.>.,.'.@.#.V %.).&.!.~.",
"Z {.].;.>.+.S ^.J /.(.X _.*.:.<.",
"` [.;.}.|.'.^.1./.2.3._.!.4.<.5.",
"].1 6.+.7.8.1.9.%.0._.!.a.<.5.b."};
