/* XPM */
static const char * flat_file_equal_xpm[] = {
"16 15 138 2",
"  	c None",
". 	c #F0F0F0",
"+ 	c #EFEFEF",
"@ 	c #EDEDED",
"# 	c #EBEBEB",
"$ 	c #E9E9E9",
"% 	c #E7E7E7",
"& 	c #E5E5E5",
"* 	c #E3E3E2",
"= 	c #E1E1E1",
"- 	c #DEDFDF",
"; 	c #DCDCDD",
"> 	c #DBDBDA",
", 	c #E3E3E3",
"' 	c #E1E1E0",
") 	c #DFDEDF",
"! 	c #DCDDDD",
"~ 	c #DADBDA",
"{ 	c #D9D9D8",
"] 	c #D6D6D6",
"^ 	c #EDEEED",
"/ 	c #ECEBEC",
"( 	c #E8E7E7",
"_ 	c #E6E5E5",
": 	c #DFDFDF",
"< 	c #DDDDDD",
"[ 	c #DBDBDB",
"} 	c #D9D9D9",
"| 	c #D7D7D6",
"1 	c #D4D5D4",
"2 	c #D2D3D2",
"3 	c #E9EAE9",
"4 	c #E4E3E3",
"5 	c #E2E1E1",
"6 	c #D5D5D4",
"7 	c #D3D3D2",
"8 	c #D1D1D0",
"9 	c #CECFCE",
"0 	c #E9EAEA",
"a 	c #E7E8E8",
"b 	c #E5E6E5",
"c 	c #E1E2E1",
"d 	c #DDDEDD",
"e 	c #D7D7D7",
"f 	c #D3D3D3",
"g 	c #D1D1D1",
"h 	c #CFCFCF",
"i 	c #CDCDCC",
"j 	c #CBCBCA",
"k 	c #E8E8E8",
"l 	c #E6E6E5",
"m 	c #E4E4E3",
"n 	c #E0DFDF",
"o 	c #D4D3D3",
"p 	c #C9C9C8",
"q 	c #E6E6E6",
"r 	c #E2E2E1",
"s 	c #DFE0DF",
"t 	c #000000",
"u 	c #CDCDCD",
"v 	c #CBCBCB",
"w 	c #CAC9C8",
"x 	c #C6C7C6",
"y 	c #E1E2E2",
"z 	c #DFE0E0",
"A 	c #DEDDDE",
"B 	c #DCDBDC",
"C 	c #D9DAD9",
"D 	c #D7D8D7",
"E 	c #D6D5D5",
"F 	c #CFD0CF",
"G 	c #C7C8C6",
"H 	c #C5C5C4",
"I 	c #E0DFE0",
"J 	c #DEDEDE",
"K 	c #DBDCDC",
"L 	c #C9CAC9",
"M 	c #C7C7C6",
"N 	c #C6C5C4",
"O 	c #C3C3C2",
"P 	c #E0E0DF",
"Q 	c #DCDCDC",
"R 	c #DADAD9",
"S 	c #D5D6D5",
"T 	c #D3D4D4",
"U 	c #D2D1D2",
"V 	c #D0D0CF",
"W 	c #CECECD",
"X 	c #CBCCCB",
"Y 	c #CACAC8",
"Z 	c #C7C8C7",
"` 	c #C6C5C5",
" .	c #C3C3C3",
"..	c #C1C1C1",
"+.	c #DADADA",
"@.	c #D8D8D8",
"#.	c #D5D5D5",
"$.	c #D4D4D3",
"%.	c #D1D2D2",
"&.	c #D0D0D0",
"*.	c #CCCCCB",
"=.	c #CACAC9",
"-.	c #C7C7C7",
";.	c #C6C6C5",
">.	c #C1C2C1",
",.	c #BFBFBF",
"'.	c #D8D8D7",
").	c #D6D6D5",
"!.	c #D4D4D4",
"~.	c #D2D2D1",
"{.	c #D0CFCF",
"].	c #CECECE",
"^.	c #C3C4C2",
"/.	c #C0C0BF",
"(.	c #BDBDBD",
"_.	c #D8D9D7",
":.	c #D7D6D6",
"<.	c #CCCCCC",
"[.	c #C8C8C7",
"}.	c #C5C6C5",
"|.	c #C2C2C1",
"1.	c #BDBEBD",
"2.	c #BCBCBB",
"3.	c #D6D7D6",
"4.	c #D2D2D2",
"5.	c #D0D1CF",
"6.	c #CBCACA",
"7.	c #C6C6C6",
"8.	c #C4C4C4",
"9.	c #BEBEBD",
"0.	c #BABAB9",
"a.	c #D3D2D2",
"b.	c #CECFCD",
"c.	c #CCCDCC",
"d.	c #C8C8C8",
"e.	c #C4C4C3",
"f.	c #BEBEBE",
"g.	c #B7B8B7",
". + @ # $ % & * = - ; >         ",
"+ @ # $ % & , ' ) ! ~ { ]       ",
"^ / $ ( _ , = : < [ } | 1 2     ",
"/ 3 ( & 4 5 : < [ { | 6 7 8 9   ",
"0 a b 4 c : d [ } e 6 f g h i j ",
"k l m 5 n < [ } | 6 o g h i j p ",
"q m r s t t t t t t t t u v w x ",
"m y z A B C D E o g F u j w G H ",
"r I J K t t t t t t t t L M N O ",
"P J Q R D S T U V W X Y Z `  ...",
"J Q +.@.#.$.%.&.W *.=.-.;. .>.,.",
"Q +.'.).!.~.{.].*.=.Z ;.^.>./.(.",
"+._.:.!.~.&.W <.L [.}. .|.,.1.2.",
"@.3.!.4.5.].<.6.[.7.8.|./.9.2.0.",
":.1 a.&.b.c.6.d.;.e.|./.f.2.0.g."};
