/* XPM */
static const char * flat_folder_xpm[] = {
"16 15 88 1",
" 	c None",
".	c #F0F948",
"+	c #F0F848",
"@	c #EFF748",
"#	c #EEF647",
"$	c #EDF547",
"%	c #EFF848",
"&	c #EFF747",
"*	c #EDF647",
"=	c #ECF547",
"-	c #EBF446",
";	c #EDF747",
">	c #ECF447",
",	c #ECF446",
"'	c #EAF346",
")	c #E9F246",
"!	c #E9F146",
"~	c #E8F045",
"{	c #E6EF45",
"]	c #E6EE45",
"^	c #E5ED45",
"/	c #E4ED44",
"(	c #E3EB44",
"_	c #E2EA44",
":	c #E1EA44",
"<	c #EEF648",
"[	c #EBF447",
"}	c #EAF347",
"|	c #E8F145",
"1	c #E8F046",
"2	c #E7EF45",
"3	c #E5EE45",
"4	c #E4EC45",
"5	c #E4EC44",
"6	c #E0E943",
"7	c #E9F346",
"8	c #E7EF46",
"9	c #E4EB45",
"0	c #E3EB43",
"a	c #E1E944",
"b	c #E0E843",
"c	c #EAF246",
"d	c #E7F146",
"e	c #E7F045",
"f	c #E2EB44",
"g	c #E2EA43",
"h	c #E0E944",
"i	c #DFE743",
"j	c #EAF446",
"k	c #E5ED44",
"l	c #DEE643",
"m	c #E6EF46",
"n	c #E3EC44",
"o	c #E1E943",
"p	c #E0E844",
"q	c #DFE843",
"r	c #DEE642",
"s	c #DDE543",
"t	c #E5EE44",
"u	c #DFE742",
"v	c #DDE442",
"w	c #E7F046",
"x	c #E6ED45",
"y	c #DEE743",
"z	c #DEE543",
"A	c #DCE442",
"B	c #E1EA43",
"C	c #DEE542",
"D	c #DCE542",
"E	c #DCE342",
"F	c #DBE341",
"G	c #E6EE46",
"H	c #E4ED45",
"I	c #E2EB43",
"J	c #E2E944",
"K	c #DDE642",
"L	c #DDE542",
"M	c #DBE342",
"N	c #DAE242",
"O	c #E6EE44",
"P	c #DFE642",
"Q	c #DBE242",
"R	c #D9E141",
"S	c #DAE142",
"T	c #D8E040",
"U	c #E0E743",
"V	c #DAE141",
"W	c #D9E041",
".+@#$           ",
"%&**=-          ",
"@;*>,')!~{]^/(_:",
"<*>[})|123^45_:6",
"*=-}7)18]^490:ab",
"=['c!de{^/(fghbi",
"[jc)12]^k5fgabil",
"'')1em3^nf_opqrs",
"))~2{tk5(:a6qusv",
"!~w{x^4(::biyzvA",
"|2{tk5f_B6qrCDEF",
"2G]H4fIJbbyKLAMN",
"{O^4(_B6qPlDAQNR",
"]^Hng:bbiCAAFNST",
"/5(ggbUurLAENVWT"};
