/* XPM */
static const char * flat_link_plusminus_xpm[] = {
"16 15 115 2",
"  	c None",
". 	c #D3D4D3",
"+ 	c #D1D1D1",
"@ 	c #D0CFCF",
"# 	c #CDCDCD",
"$ 	c #CACBCB",
"% 	c #C8C9C9",
"& 	c #D6D6D6",
"* 	c #D4D3D4",
"= 	c #D1D2D1",
"- 	c #CFCFCF",
"; 	c #CDCECD",
"> 	c #CBCCCB",
", 	c #C9C9C9",
"' 	c #C7C7C6",
") 	c #C5C5C5",
"! 	c #C2C3C2",
"~ 	c #D4D4D4",
"{ 	c #D1D2D2",
"] 	c #CFCFD0",
"^ 	c #CBCBCB",
"/ 	c #C9CAC9",
"( 	c #C7C7C7",
"_ 	c #C5C4C5",
": 	c #C2C3C3",
"< 	c #C0C0C0",
"[ 	c #BEBEBE",
"} 	c #D0D0CF",
"| 	c #CDCECE",
"1 	c #CCCBCB",
"2 	c #C5C5C4",
"3 	c #BEBFBE",
"4 	c #BBBCBB",
"5 	c #BABAB9",
"6 	c #D2D3D2",
"7 	c #D0CFD0",
"8 	c #CECECE",
"9 	c #0000FF",
"0 	c #C1C1C0",
"a 	c #BCBDBC",
"b 	c #BABABA",
"c 	c #B7B8B7",
"d 	c #D2D2D2",
"e 	c #CFD0D0",
"f 	c #CBCCCC",
"g 	c #CACAC9",
"h 	c #C7C8C7",
"i 	c #C0C1C0",
"j 	c #BFBEBE",
"k 	c #BCBCBC",
"l 	c #B8B8B7",
"m 	c #B6B6B6",
"n 	c #B3B4B4",
"o 	c #D0D1D0",
"p 	c #CECECD",
"q 	c #CAC9CA",
"r 	c #B8B8B8",
"s 	c #B6B7B6",
"t 	c #B4B4B3",
"u 	c #B1B2B1",
"v 	c #D0D0D0",
"w 	c #CAC9C9",
"x 	c #C3C3C3",
"y 	c #BABBBA",
"z 	c #B5B6B6",
"A 	c #B4B4B4",
"B 	c #B1B1B1",
"C 	c #B0B0B0",
"D 	c #CCCCCC",
"E 	c #CACACA",
"F 	c #C6C6C5",
"G 	c #C3C4C3",
"H 	c #C0C2C1",
"I 	c #BFBFBF",
"J 	c #B8B9B8",
"K 	c #B5B7B6",
"L 	c #B2B2B2",
"M 	c #AFB0B0",
"N 	c #ADADAD",
"O 	c #C8C8C7",
"P 	c #C6C6C6",
"Q 	c #C1C1C1",
"R 	c #BFC0BF",
"S 	c #BBBABA",
"T 	c #B7B6B6",
"U 	c #B1B2B2",
"V 	c #ADAEAD",
"W 	c #ABABAB",
"X 	c #C7C8C8",
"Y 	c #C5C5C6",
"Z 	c #AFB0AF",
"` 	c #ADAEAE",
" .	c #ABACAC",
"..	c #C4C4C3",
"+.	c #BDBEBD",
"@.	c #BABBBB",
"#.	c #B4B5B4",
"$.	c #AEAEAE",
"%.	c #ACACAB",
"&.	c #A9A9AA",
"*.	c #C0C0BF",
"=.	c #B9B9B8",
"-.	c #B7B7B7",
";.	c #B4B5B5",
">.	c #B0B1B0",
",.	c #AEAFAD",
"'.	c #A9AAAA",
").	c #BEBDBD",
"!.	c #B9B9B9",
"~.	c #B5B5B4",
"{.	c #B2B3B2",
"].	c #ACACAC",
"^.	c #AAAAAA",
"/.	c #AEAFAE",
"(.	c #ACADAC",
"          . + @ # $ %           ",
"      & * = - ; > , ' ) !       ",
"    & ~ { ] # ^ / ( _ : < [     ",
"  & ~ { } | 1 , ( 2 ! < 3 4 5   ",
"  ~ 6 7 8 1 , ( 9 : 0 3 a b c   ",
"~ d e 8 f g h ) 9 i j k b l m n ",
"6 o p > q 9 9 9 9 9 9 9 r s t u ",
"v 8 f w ( ) x 0 9 a y r z A B C ",
"8 D E h F G H I 9 y J K A L M N ",
"D g O P G Q R a S J T A U C V W ",
"  X Y G Q 9 9 9 9 9 9 9 Z `  .  ",
"  F ..Q I +.@.J s #.L C $.%.&.  ",
"    Q *.+.@.=.-.;.L >.,.%.'.    ",
"      ).4 !.-.~.{.>.$.].^.      ",
"          -.#.{.>./.(.          "};
