/* XPM */
static const char * flat_file_quickmatch_xpm[] = {
"16 15 131 2",
"  	c None",
". 	c #F0F0F0",
"+ 	c #EFEFEF",
"@ 	c #EDEDED",
"# 	c #EBEBEB",
"$ 	c #E9E9E9",
"% 	c #E7E7E7",
"& 	c #E5E5E5",
"* 	c #E3E3E2",
"= 	c #E1E1E1",
"- 	c #DEDFDF",
"; 	c #DCDCDD",
"> 	c #DBDBDA",
", 	c #E3E3E3",
"' 	c #E1E1E0",
") 	c #DFDEDF",
"! 	c #DCDDDD",
"~ 	c #DADBDA",
"{ 	c #D9D9D8",
"] 	c #D6D6D6",
"^ 	c #EDEEED",
"/ 	c #ECEBEC",
"( 	c #E8E7E7",
"_ 	c #E6E5E5",
": 	c #DFDFDF",
"< 	c #DDDDDD",
"[ 	c #DBDBDB",
"} 	c #D9D9D9",
"| 	c #D7D7D6",
"1 	c #D4D5D4",
"2 	c #D2D3D2",
"3 	c #E9EAE9",
"4 	c #E4E3E3",
"5 	c #E2E1E1",
"6 	c #D5D5D4",
"7 	c #D3D3D2",
"8 	c #D1D1D0",
"9 	c #CECFCE",
"0 	c #E9EAEA",
"a 	c #E7E8E8",
"b 	c #E5E6E5",
"c 	c #E1E2E1",
"d 	c #DDDEDD",
"e 	c #D7D7D7",
"f 	c #D3D3D3",
"g 	c #D1D1D1",
"h 	c #CFCFCF",
"i 	c #CDCDCC",
"j 	c #CBCBCA",
"k 	c #E8E8E8",
"l 	c #E6E6E5",
"m 	c #E4E4E3",
"n 	c #000000",
"o 	c #C9C9C8",
"p 	c #E6E6E6",
"q 	c #DFE0DF",
"r 	c #DEDDDD",
"s 	c #D8D7D7",
"t 	c #CDCDCD",
"u 	c #CBCBCB",
"v 	c #C6C7C6",
"w 	c #E1E2E2",
"x 	c #DEDDDE",
"y 	c #DCDBDC",
"z 	c #D7D8D7",
"A 	c #D6D5D5",
"B 	c #CFD0CF",
"C 	c #CAC9C8",
"D 	c #C5C5C4",
"E 	c #E2E2E1",
"F 	c #E0DFE0",
"G 	c #DBDCDC",
"H 	c #DAD9D9",
"I 	c #D5D5D5",
"J 	c #CDCECD",
"K 	c #C9CAC9",
"L 	c #C7C7C6",
"M 	c #C3C3C2",
"N 	c #E0E0DF",
"O 	c #DEDEDE",
"P 	c #DCDCDC",
"Q 	c #D3D4D4",
"R 	c #D2D1D2",
"S 	c #CECECD",
"T 	c #CBCCCB",
"U 	c #C7C8C7",
"V 	c #C6C5C5",
"W 	c #C1C1C1",
"X 	c #DADADA",
"Y 	c #D8D8D8",
"Z 	c #D1D2D2",
"` 	c #D0D0D0",
" .	c #CCCCCB",
"..	c #CACAC9",
"+.	c #C7C7C7",
"@.	c #C6C6C5",
"#.	c #C3C3C3",
"$.	c #C1C2C1",
"%.	c #BFBFBF",
"&.	c #D8D8D7",
"*.	c #D6D6D5",
"=.	c #D4D4D4",
"-.	c #D0CFCF",
";.	c #CECECE",
">.	c #C3C4C2",
",.	c #C0C0BF",
"'.	c #BDBDBD",
").	c #D8D9D7",
"!.	c #D7D6D6",
"~.	c #D2D2D1",
"{.	c #CCCCCC",
"].	c #C8C8C7",
"^.	c #C5C6C5",
"/.	c #C2C2C1",
"(.	c #BDBEBD",
"_.	c #BCBCBB",
":.	c #D6D7D6",
"<.	c #D2D2D2",
"[.	c #D0D1CF",
"}.	c #CBCACA",
"|.	c #C6C6C6",
"1.	c #C4C4C4",
"2.	c #BEBEBD",
"3.	c #BABAB9",
"4.	c #D3D2D2",
"5.	c #CECFCD",
"6.	c #CCCDCC",
"7.	c #C8C8C8",
"8.	c #C4C4C3",
"9.	c #BEBEBE",
"0.	c #B7B8B7",
". + @ # $ % & * = - ; >         ",
"+ @ # $ % & , ' ) ! ~ { ]       ",
"^ / $ ( _ , = : < [ } | 1 2     ",
"/ 3 ( & 4 5 : < [ { | 6 7 8 9   ",
"0 a b 4 c : d [ } e 6 f g h i j ",
"k l m n n n [ } n n n n n n n o ",
"p m n q r n } s n f g n t u n v ",
"m w n x y n z A n g B n j C n D ",
"E F n G H n I f n B J n K L n M ",
"N O P n n n Q R n S T n U V n W ",
"O P X Y I n Z ` S  ...+.@.#.$.%.",
"P X &.*.=.n -.;. ...U @.>.$.,.'.",
"X ).!.=.~.` S {.K ].^.#./.%.(._.",
"Y :.=.<.[.;.{.}.].|.1./.,.2._.3.",
"!.1 4.` 5.6.}.7.@.8./.,.9._.3.0."};
