/* XPM */
static const char * flat_link_notequal_xpm[] = {
"16 15 113 2",
"  	c None",
". 	c #D3D4D3",
"+ 	c #D1D1D1",
"@ 	c #D0CFCF",
"# 	c #CDCDCD",
"$ 	c #CACBCB",
"% 	c #C8C9C9",
"& 	c #D6D6D6",
"* 	c #D4D3D4",
"= 	c #D1D2D1",
"- 	c #CFCFCF",
"; 	c #CDCECD",
"> 	c #CBCCCB",
", 	c #C9C9C9",
"' 	c #C7C7C6",
") 	c #C5C5C5",
"! 	c #C2C3C2",
"~ 	c #D4D4D4",
"{ 	c #D1D2D2",
"] 	c #CFCFD0",
"^ 	c #CBCBCB",
"/ 	c #C9CAC9",
"( 	c #C7C7C7",
"_ 	c #C5C4C5",
": 	c #C2C3C3",
"< 	c #C0C0C0",
"[ 	c #BEBEBE",
"} 	c #D0D0CF",
"| 	c #CDCECE",
"1 	c #CCCBCB",
"2 	c #C5C5C4",
"3 	c #BEBFBE",
"4 	c #BBBCBB",
"5 	c #BABAB9",
"6 	c #D2D3D2",
"7 	c #D0CFD0",
"8 	c #CECECE",
"9 	c #D20000",
"0 	c #BCBDBC",
"a 	c #BABABA",
"b 	c #B7B8B7",
"c 	c #D2D2D2",
"d 	c #CFD0D0",
"e 	c #CBCCCC",
"f 	c #CACAC9",
"g 	c #C7C8C7",
"h 	c #C3C3C2",
"i 	c #BCBCBC",
"j 	c #B8B8B7",
"k 	c #B6B6B6",
"l 	c #B3B4B4",
"m 	c #D0D1D0",
"n 	c #CECECD",
"o 	c #B8B8B8",
"p 	c #B6B7B6",
"q 	c #B4B4B3",
"r 	c #B1B2B1",
"s 	c #D0D0D0",
"t 	c #CAC9C9",
"u 	c #C3C3C3",
"v 	c #BABBBA",
"w 	c #B5B6B6",
"x 	c #B4B4B4",
"y 	c #B1B1B1",
"z 	c #B0B0B0",
"A 	c #CCCCCC",
"B 	c #CACACA",
"C 	c #B2B2B2",
"D 	c #AFB0B0",
"E 	c #ADADAD",
"F 	c #C8C8C7",
"G 	c #C6C6C6",
"H 	c #C3C4C3",
"I 	c #BBBABA",
"J 	c #B8B9B8",
"K 	c #B7B6B6",
"L 	c #B1B2B2",
"M 	c #ADAEAD",
"N 	c #ABABAB",
"O 	c #C7C8C8",
"P 	c #C5C5C6",
"Q 	c #C1C1C1",
"R 	c #BDBDBD",
"S 	c #BBBBBB",
"T 	c #B9B9B8",
"U 	c #B6B7B7",
"V 	c #B1B3B2",
"W 	c #AFB0AF",
"X 	c #ADAEAE",
"Y 	c #ABACAC",
"Z 	c #C6C6C5",
"` 	c #C4C4C3",
" .	c #BFBFBF",
"..	c #BDBEBD",
"+.	c #BABBBB",
"@.	c #B4B5B4",
"#.	c #AEAEAE",
"$.	c #ACACAB",
"%.	c #A9A9AA",
"&.	c #C0C0BF",
"*.	c #B7B7B7",
"=.	c #B4B5B5",
"-.	c #B0B1B0",
";.	c #AEAFAD",
">.	c #A9AAAA",
",.	c #BEBDBD",
"'.	c #B9B9B9",
").	c #B5B5B4",
"!.	c #B2B3B2",
"~.	c #ACACAC",
"{.	c #AAAAAA",
"].	c #AEAFAE",
"^.	c #ACADAC",
"          . + @ # $ %           ",
"      & * = - ; > , ' ) !       ",
"    & ~ { ] # ^ / ( _ : < [     ",
"  & ~ { } | 1 , ( 2 ! < 3 4 5   ",
"  ~ 6 7 8 1 , ( 2 : 9 3 0 a b   ",
"~ c d 8 e f g ) h 9 9 i a j k l ",
"6 m n > 9 9 9 9 9 9 9 9 o p q r ",
"s 8 e t ( ) u 9 9 0 v o w x y z ",
"8 A B g 9 9 9 9 9 9 9 9 x C D E ",
"A f F G H 9 9 0 I J K x L z M N ",
"  O P H Q 9 R S T U x V W X Y   ",
"  Z ` Q  ...+.J p @.C z #.$.%.  ",
"    Q &...+.T *.=.C -.;.$.>.    ",
"      ,.4 '.*.).!.-.#.~.{.      ",
"          *.@.!.-.].^.          "};
