/* XPM */
static const char * flat_file_equivalent_xpm[] = {
"16 15 139 2",
"  	c None",
". 	c #F0F0F0",
"+ 	c #EFEFEF",
"@ 	c #EDEDED",
"# 	c #EBEBEB",
"$ 	c #E9E9E9",
"% 	c #E7E7E7",
"& 	c #E5E5E5",
"* 	c #E3E3E2",
"= 	c #E1E1E1",
"- 	c #DEDFDF",
"; 	c #DCDCDD",
"> 	c #DBDBDA",
", 	c #E3E3E3",
"' 	c #E1E1E0",
") 	c #DFDEDF",
"! 	c #DCDDDD",
"~ 	c #DADBDA",
"{ 	c #D9D9D8",
"] 	c #D6D6D6",
"^ 	c #EDEEED",
"/ 	c #ECEBEC",
"( 	c #E8E7E7",
"_ 	c #E6E5E5",
": 	c #DFDFDF",
"< 	c #DDDDDD",
"[ 	c #DBDBDB",
"} 	c #D9D9D9",
"| 	c #D7D7D6",
"1 	c #D4D5D4",
"2 	c #D2D3D2",
"3 	c #E9EAE9",
"4 	c #E4E3E3",
"5 	c #E2E1E1",
"6 	c #D5D5D4",
"7 	c #D3D3D2",
"8 	c #D1D1D0",
"9 	c #CECFCE",
"0 	c #E9EAEA",
"a 	c #E7E8E8",
"b 	c #E5E6E5",
"c 	c #E1E2E1",
"d 	c #DDDEDD",
"e 	c #D7D7D7",
"f 	c #D3D3D3",
"g 	c #D1D1D1",
"h 	c #CFCFCF",
"i 	c #CDCDCC",
"j 	c #CBCBCA",
"k 	c #E8E8E8",
"l 	c #E6E6E5",
"m 	c #E4E4E3",
"n 	c #E0DFDF",
"o 	c #000000",
"p 	c #D4D3D3",
"q 	c #C9C9C8",
"r 	c #E6E6E6",
"s 	c #E2E2E1",
"t 	c #DFE0DF",
"u 	c #DCDBDB",
"v 	c #D8D7D7",
"w 	c #CFCFCE",
"x 	c #CDCDCD",
"y 	c #CBCBCB",
"z 	c #CAC9C8",
"A 	c #C6C7C6",
"B 	c #E1E2E2",
"C 	c #DFE0E0",
"D 	c #DEDDDE",
"E 	c #DCDBDC",
"F 	c #CFD0CF",
"G 	c #C7C8C6",
"H 	c #C5C5C4",
"I 	c #E0DFE0",
"J 	c #DEDEDE",
"K 	c #DBDCDC",
"L 	c #D5D5D5",
"M 	c #C9CAC9",
"N 	c #C7C7C6",
"O 	c #C6C5C4",
"P 	c #C3C3C2",
"Q 	c #E0E0DF",
"R 	c #DCDCDC",
"S 	c #DADAD9",
"T 	c #D7D8D7",
"U 	c #D5D6D5",
"V 	c #D3D4D4",
"W 	c #D2D1D2",
"X 	c #D0D0CF",
"Y 	c #CECECD",
"Z 	c #CBCCCB",
"` 	c #CACAC8",
" .	c #C7C8C7",
"..	c #C6C5C5",
"+.	c #C3C3C3",
"@.	c #C1C1C1",
"#.	c #DADADA",
"$.	c #D8D8D8",
"%.	c #D4D4D3",
"&.	c #D1D2D2",
"*.	c #D0D0D0",
"=.	c #CCCCCB",
"-.	c #CACAC9",
";.	c #C7C7C7",
">.	c #C6C6C5",
",.	c #C1C2C1",
"'.	c #BFBFBF",
").	c #D8D8D7",
"!.	c #D6D6D5",
"~.	c #D4D4D4",
"{.	c #D2D2D1",
"].	c #D0CFCF",
"^.	c #CECECE",
"/.	c #C3C4C2",
"(.	c #C0C0BF",
"_.	c #BDBDBD",
":.	c #D8D9D7",
"<.	c #D7D6D6",
"[.	c #CCCCCC",
"}.	c #C8C8C7",
"|.	c #C5C6C5",
"1.	c #C2C2C1",
"2.	c #BDBEBD",
"3.	c #BCBCBB",
"4.	c #D6D7D6",
"5.	c #D2D2D2",
"6.	c #D0D1CF",
"7.	c #CBCACA",
"8.	c #C6C6C6",
"9.	c #C4C4C4",
"0.	c #BEBEBD",
"a.	c #BABAB9",
"b.	c #D3D2D2",
"c.	c #CECFCD",
"d.	c #CCCDCC",
"e.	c #C8C8C8",
"f.	c #C4C4C3",
"g.	c #BEBEBE",
"h.	c #B7B8B7",
". + @ # $ % & * = - ; >         ",
"+ @ # $ % & , ' ) ! ~ { ]       ",
"^ / $ ( _ , = : < [ } | 1 2     ",
"/ 3 ( & 4 5 : < [ { | 6 7 8 9   ",
"0 a b 4 c : d [ } e 6 f g h i j ",
"k l m 5 n o o o | 6 p o h i j q ",
"r m s t o u } v o o o w x y z A ",
"m B C D E o o o p g F o j z G H ",
"s I J K o v L f o o o y M N O P ",
"Q J R S T U V W X Y Z `  ...+.@.",
"J R #.$.L %.&.*.Y =.-.;.>.+.,.'.",
"R #.).!.~.{.].^.=.-. .>./.,.(._.",
"#.:.<.~.{.*.Y [.M }.|.+.1.'.2.3.",
"$.4.~.5.6.^.[.7.}.8.9.1.(.0.3.a.",
"<.1 b.*.c.d.7.e.>.f.1.(.g.3.a.h."};
