/* XPM */
static const char * flat_folder_plusminus_xpm[] = {
"16 15 89 1",
" 	c None",
".	c #F0F948",
"+	c #F0F848",
"@	c #EFF748",
"#	c #EEF647",
"$	c #EDF547",
"%	c #EFF848",
"&	c #EFF747",
"*	c #EDF647",
"=	c #ECF547",
"-	c #EBF446",
";	c #EDF747",
">	c #ECF447",
",	c #ECF446",
"'	c #EAF346",
")	c #E9F246",
"!	c #E9F146",
"~	c #E8F045",
"{	c #E6EF45",
"]	c #E6EE45",
"^	c #E5ED45",
"/	c #E4ED44",
"(	c #E3EB44",
"_	c #E2EA44",
":	c #E1EA44",
"<	c #EEF648",
"[	c #EBF447",
"}	c #EAF347",
"|	c #E8F145",
"1	c #E8F046",
"2	c #E7EF45",
"3	c #E5EE45",
"4	c #E4EC45",
"5	c #E4EC44",
"6	c #E0E943",
"7	c #E9F346",
"8	c #E7EF46",
"9	c #0000FF",
"0	c #E4EB45",
"a	c #E3EB43",
"b	c #E1E944",
"c	c #E0E843",
"d	c #EAF246",
"e	c #E7F146",
"f	c #E7F045",
"g	c #E2EB44",
"h	c #E2EA43",
"i	c #E0E944",
"j	c #DFE743",
"k	c #EAF446",
"l	c #DEE643",
"m	c #E6EF46",
"n	c #E1E943",
"o	c #E0E844",
"p	c #DFE843",
"q	c #DEE642",
"r	c #DDE543",
"s	c #E5EE44",
"t	c #E5ED44",
"u	c #DFE742",
"v	c #DDE442",
"w	c #E7F046",
"x	c #E6ED45",
"y	c #DEE743",
"z	c #DEE543",
"A	c #DCE442",
"B	c #DEE542",
"C	c #DCE542",
"D	c #DCE342",
"E	c #DBE341",
"F	c #E6EE46",
"G	c #E4ED45",
"H	c #E2EB43",
"I	c #E2E944",
"J	c #DDE642",
"K	c #DDE542",
"L	c #DBE342",
"M	c #DAE242",
"N	c #E6EE44",
"O	c #E1EA43",
"P	c #DFE642",
"Q	c #DBE242",
"R	c #D9E141",
"S	c #E3EC44",
"T	c #DAE142",
"U	c #D8E040",
"V	c #E0E743",
"W	c #DAE141",
"X	c #D9E041",
".+@#$           ",
"%&**=-          ",
"@;*>,')!~{]^/(_:",
"<*>[})|123^45_:6",
"*=-}7)189^40a:bc",
"=['d!ef{9/(ghicj",
"[kd)19999999bcjl",
"'')1fm3^9g_nopqr",
"))~2{st59:b6purv",
"!~w{x^4(::cjyzvA",
"|2{st9999999BCDE",
"2F]G4gHIccyJKALM",
"{N^4(_O6pPlCAQMR",
"]^GSh:ccjBAAEMTU",
"/5(hhcVuqKADMWXU"};
