/* XPM */
static const char * flat_link_equal_xpm[] = {
"16 15 117 2",
"  	c None",
". 	c #D3D4D3",
"+ 	c #D1D1D1",
"@ 	c #D0CFCF",
"# 	c #CDCDCD",
"$ 	c #CACBCB",
"% 	c #C8C9C9",
"& 	c #D6D6D6",
"* 	c #D4D3D4",
"= 	c #D1D2D1",
"- 	c #CFCFCF",
"; 	c #CDCECD",
"> 	c #CBCCCB",
", 	c #C9C9C9",
"' 	c #C7C7C6",
") 	c #C5C5C5",
"! 	c #C2C3C2",
"~ 	c #D4D4D4",
"{ 	c #D1D2D2",
"] 	c #CFCFD0",
"^ 	c #CBCBCB",
"/ 	c #C9CAC9",
"( 	c #C7C7C7",
"_ 	c #C5C4C5",
": 	c #C2C3C3",
"< 	c #C0C0C0",
"[ 	c #BEBEBE",
"} 	c #D0D0CF",
"| 	c #CDCECE",
"1 	c #CCCBCB",
"2 	c #C5C5C4",
"3 	c #BEBFBE",
"4 	c #BBBCBB",
"5 	c #BABAB9",
"6 	c #D2D3D2",
"7 	c #D0CFD0",
"8 	c #CECECE",
"9 	c #C1C1C0",
"0 	c #BCBDBC",
"a 	c #BABABA",
"b 	c #B7B8B7",
"c 	c #D2D2D2",
"d 	c #CFD0D0",
"e 	c #CBCCCC",
"f 	c #CACAC9",
"g 	c #C7C8C7",
"h 	c #C3C3C2",
"i 	c #C0C1C0",
"j 	c #BFBEBE",
"k 	c #BCBCBC",
"l 	c #B8B8B7",
"m 	c #B6B6B6",
"n 	c #B3B4B4",
"o 	c #D0D1D0",
"p 	c #CECECD",
"q 	c #000000",
"r 	c #B8B8B8",
"s 	c #B6B7B6",
"t 	c #B4B4B3",
"u 	c #B1B2B1",
"v 	c #D0D0D0",
"w 	c #CAC9C9",
"x 	c #C3C3C3",
"y 	c #BABBBA",
"z 	c #B5B6B6",
"A 	c #B4B4B4",
"B 	c #B1B1B1",
"C 	c #B0B0B0",
"D 	c #CCCCCC",
"E 	c #CACACA",
"F 	c #B2B2B2",
"G 	c #AFB0B0",
"H 	c #ADADAD",
"I 	c #C8C8C7",
"J 	c #C6C6C6",
"K 	c #C3C4C3",
"L 	c #C1C1C1",
"M 	c #BFC0BF",
"N 	c #BBBABA",
"O 	c #B8B9B8",
"P 	c #B7B6B6",
"Q 	c #B1B2B2",
"R 	c #ADAEAD",
"S 	c #ABABAB",
"T 	c #C7C8C8",
"U 	c #C5C5C6",
"V 	c #BFBFBF",
"W 	c #BDBDBD",
"X 	c #BBBBBB",
"Y 	c #B9B9B8",
"Z 	c #B6B7B7",
"` 	c #B1B3B2",
" .	c #AFB0AF",
"..	c #ADAEAE",
"+.	c #ABACAC",
"@.	c #C6C6C5",
"#.	c #C4C4C3",
"$.	c #BDBEBD",
"%.	c #BABBBB",
"&.	c #B4B5B4",
"*.	c #AEAEAE",
"=.	c #ACACAB",
"-.	c #A9A9AA",
";.	c #C0C0BF",
">.	c #B7B7B7",
",.	c #B4B5B5",
"'.	c #B0B1B0",
").	c #AEAFAD",
"!.	c #A9AAAA",
"~.	c #BEBDBD",
"{.	c #B9B9B9",
"].	c #B5B5B4",
"^.	c #B2B3B2",
"/.	c #ACACAC",
"(.	c #AAAAAA",
"_.	c #AEAFAE",
":.	c #ACADAC",
"          . + @ # $ %           ",
"      & * = - ; > , ' ) !       ",
"    & ~ { ] # ^ / ( _ : < [     ",
"  & ~ { } | 1 , ( 2 ! < 3 4 5   ",
"  ~ 6 7 8 1 , ( 2 : 9 3 0 a b   ",
"~ c d 8 e f g ) h i j k a l m n ",
"6 o p > q q q q q q q q r s t u ",
"v 8 e w ( ) x 9 3 0 y r z A B C ",
"8 D E g q q q q q q q q A F G H ",
"D f I J K L M 0 N O P A Q C R S ",
"  T U K L V W X Y Z A `  ...+.  ",
"  @.#.L V $.%.O s &.F C *.=.-.  ",
"    L ;.$.%.Y >.,.F '.).=.!.    ",
"      ~.4 {.>.].^.'.*./.(.      ",
"          >.&.^.'._.:.          "};
