/* XPM */
const char * DiffMergeIcon_xpm[] = {
"48 48 191 2",
"  	c None",
". 	c #D8D8D8",
"+ 	c #5F5D5E",
"@ 	c #E2E2E2",
"# 	c #DADADA",
"$ 	c #4E4C4D",
"% 	c #4B4848",
"& 	c #535151",
"* 	c #E3E3E3",
"= 	c #D7D7D7",
"- 	c #4C494A",
"; 	c #605E5F",
"> 	c #828080",
", 	c #5C5A5B",
"' 	c #DEDEDE",
") 	c #484646",
"! 	c #7C7B7B",
"~ 	c #787777",
"{ 	c #4D4B4C",
"] 	c #E0E0E0",
"^ 	c #D3D2D3",
"/ 	c #4F4D4E",
"( 	c #7D7C7C",
"_ 	c #5B595A",
": 	c #514F4F",
"< 	c #959595",
"[ 	c #3A3637",
"} 	c #7B7A7A",
"| 	c #7A7979",
"1 	c #5A5859",
"2 	c #E1E1E1",
"3 	c #8B8A8A",
"4 	c #434141",
"5 	c #888787",
"6 	c #797878",
"7 	c #DDDDDD",
"8 	c #E5E5E5",
"9 	c #848383",
"0 	c #514F50",
"a 	c #858484",
"b 	c #444242",
"c 	c #898888",
"d 	c #5D5B5B",
"e 	c #504E4E",
"f 	c #434041",
"g 	c #4B4849",
"h 	c #454243",
"i 	c #8C8B8B",
"j 	c #423F40",
"k 	c #FDFDFD",
"l 	c #828181",
"m 	c #595758",
"n 	c #E8E8E8",
"o 	c #8B8888",
"p 	c #4D5254",
"q 	c #3F4F52",
"r 	c #4A5053",
"s 	c #848181",
"t 	c #C4C3C3",
"u 	c #354246",
"v 	c #0D7F94",
"w 	c #03ABC9",
"x 	c #01B3D3",
"y 	c #03ABCA",
"z 	c #0C849B",
"A 	c #314347",
"B 	c #BBBABA",
"C 	c #868585",
"D 	c #7B797A",
"E 	c #2F2B2C",
"F 	c #3E3B3B",
"G 	c #303F44",
"H 	c #04A7C5",
"I 	c #00C1E4",
"J 	c #00B9DB",
"K 	c #00B8D9",
"L 	c #00C0E4",
"M 	c #03ACCB",
"N 	c #283F44",
"O 	c #D5D4D4",
"P 	c #747273",
"Q 	c #3B3738",
"R 	c #353333",
"S 	c #413D3E",
"T 	c #747070",
"U 	c #0B869D",
"V 	c #00B6D7",
"W 	c #00C0E3",
"X 	c #098EA7",
"Y 	c #666262",
"Z 	c #838282",
"` 	c #757374",
" .	c #3B3839",
"..	c #363334",
"+.	c #494647",
"@.	c #4A4747",
"#.	c #343031",
"$.	c #464344",
"%.	c #FBFBFB",
"&.	c #384749",
"*.	c #01B2D2",
"=.	c #00B7D8",
"-.	c #2E4A50",
";.	c #F4F4F4",
">.	c #3C3A3B",
",.	c #373434",
"'.	c #464445",
").	c #EAEAEA",
"!.	c #28474E",
"~.	c #00BADC",
"{.	c #00BEE0",
"].	c #1D5460",
"^.	c #DFDFDF",
"/.	c #272324",
"(.	c #383435",
"_.	c #343132",
":.	c #ECECEC",
"<.	c #30464C",
"[.	c #00BDDF",
"}.	c #254F58",
"|.	c #EBEBEB",
"1.	c #F1F1F1",
"2.	c #666464",
"3.	c #474545",
"4.	c #2C2829",
"5.	c #6A6868",
"6.	c #F5F5F5",
"7.	c #565556",
"8.	c #069DBA",
"9.	c #00BBDE",
"0.	c #04A5C2",
"a.	c #4C4E4F",
"b.	c #F0F0F0",
"c.	c #5D5C5C",
"d.	c #545252",
"e.	c #312E2E",
"f.	c #2A2728",
"g.	c #646262",
"h.	c #FEFEFE",
"i.	c #C0BFBF",
"j.	c #184D59",
"k.	c #00BCDF",
"l.	c #00BADD",
"m.	c #00BEE2",
"n.	c #175561",
"o.	c #ADACAC",
"p.	c #525051",
"q.	c #2B2828",
"r.	c #696768",
"s.	c #FCFCFC",
"t.	c #8D8A8A",
"u.	c #175460",
"v.	c #04A7C6",
"w.	c #00BFE2",
"x.	c #155A68",
"y.	c #827F7F",
"z.	c #EDEDED",
"A.	c #686667",
"B.	c #4C5052",
"C.	c #1D515C",
"D.	c #146373",
"E.	c #1D535E",
"F.	c #474E50",
"G.	c #A5A3A2",
"H.	c #676565",
"I.	c #D9D9D9",
"J.	c #CACAC9",
"K.	c #F2F2F2",
"L.	c #555253",
"M.	c #777676",
"N.	c #706F6F",
"O.	c #767575",
"P.	c #585657",
"Q.	c #727171",
"R.	c #EEEEEE",
"S.	c #6D6B6C",
"T.	c #737172",
"U.	c #585556",
"V.	c #565354",
"W.	c #6F6D6E",
"X.	c #8A8989",
"Y.	c #393536",
"Z.	c #818080",
"`.	c #6B6A6A",
" +	c #F3F3F3",
".+	c #6E6C6D",
"++	c #4C4A4B",
"@+	c #F9F9F9",
"#+	c #6F6E6F",
"$+	c #6C6A6B",
"%+	c #969596",
"                                . + @                                                           ",
"                              # $ % & *                                                         ",
"                            = - ; > , $ '                                                       ",
"                          = ) ; ! ~ ! , { ]                                                     ",
"                        ^ / ; ! ~ ~ ~ ( _ : ]                                                   ",
"                        < [ } | ~ ~ ~ ~ ! 1 / 2                                                 ",
"                          3 4 ~ | ~ ~ ~ ~ ! , : @                                               ",
"                            5 4 6 | ~ ~ ~ ~ ! , $ 7                                             ",
"                              5 4 | | ~ ~ ~ ~ ! 1 / 8                                           ",
"                                9 4 6 | ~ ~ ~ ~ ! _ 0 ]                                         ",
"                                  a b 6 | ~ ~ ~ ~ ! 1 / ]                                       ",
"                                    c 4 ~ | ~ ~ ~ ~ ! d e '                                     ",
"                                      a f | | ~ ~ ~ ~ ! _ g @                                   ",
"                                        5 h 6 | ~ ~ ~ ~ ! , 0 8                                 ",
"                                          a f 6 | ~ ~ ~ ~ ( _ : '                               ",
"                                            i b 6 | ~ ~ ~ ~ ! _ $ ]                             ",
"                                              c j 6 | ~ ~ ~ ~ ! d $ ]                           ",
"                                  k             l h | | ~ ~ ~ ~ ! m / @                         ",
"                            n o p q r s 2         5 b 6 | ~ ~ ~ ~ ! d & ]                       ",
"                          t u v w x y z A B         C 4 6 | ~ ~ ~ D ~ E F '                     ",
"                        * G H I J K J L M N O         i 4 6 | ~ D P Q Q R S 2                   ",
"                        T U I V V V V V W X Y           Z f 6 } `  ...+.@.#.$.@                 ",
"                      %.&.*.K V V V V V =.J -.;.          5 ) P >.,.+.'.'.@.#.4 2               ",
"                      ).!.~.=.V V V V V V {.].^.            C /.(.@.'.'.'.'.% _.S :.            ",
"                      ;.<.=.=.V V V V V V [.}.|.          1.2.>.#.3.3.'.'.3.) 4.5.6.            ",
"                        7.8.[.V V V V V 9.0.a.          b.c.d.> g e.3.3.'.) f.g.h.              ",
"                        i.j.k.9.V V V l.m.n.o.        1.d p.! 6 } @.e.3.+.q.r.s.                ",
"                          t.u.v.{.w.{.y x.y.        z.c.d.! ~ ~ 6 } - _.q.A.h.                  ",
"                            o.B.C.D.E.F.G.        z.m d.! ~ ~ ~ ~ | ! e.H.k                     ",
"                                I.J.=           K._ L.( ~ ~ ~ ~ 6 } @.M.                        ",
"                                              b._ & ! ~ ~ ~ ~ 6 D +.N.k                         ",
"                                            1., d.! ~ ~ ~ ~ 6 D @.O.h.                          ",
"                                          z.d d.( ~ ~ ~ ~ 6 D ) P                               ",
"                                        1.P.& ( ~ ~ ~ ~ 6 } ) M.h.                              ",
"                                      K.+ & ! ~ ~ ~ ~ 6 } % Q.h.                                ",
"                                    R.1 & ! ~ ~ ~ ~ 6 } % S.k                                   ",
"                                  b., L.! ~ ~ ~ ~ 6 } % T.k                                     ",
"                                z.U.V.! ~ ~ ~ ~ 6 } ) N.h.                                      ",
"                              K.c.& ! ~ ~ ~ ~ 6 ! g W.%.                                        ",
"                            1.+ & ( ~ ~ ~ ~ 6 } @.W.k                                           ",
"                          R.m & ! ~ ~ ~ ~ 6 } % Q.s.                                            ",
"                        8 c.V.( ~ ~ ~ ~ 6 } % P                                                 ",
"                        X.Y.Z.6 ~ ~ ~ 6 } @.`.h.                                                ",
"                         +.+++} 6 ~ 6 } g N.%.                                                  ",
"                          @+5.g } 6 D @.#+k                                                     ",
"                            s.W.- ( % T.k                                                       ",
"                              s.$+_.Q.                                                          ",
"                                6.%+@+                                                          "};
