/* XPM */
const char * DiffMergeIcon32_xpm[] = {
"32 32 121 2",
"  	c None",
". 	c #8F9191",
"+ 	c #6A6868",
"@ 	c #5C5A5B",
"# 	c #595758",
"$ 	c #686667",
"% 	c #636161",
"& 	c #807F7F",
"* 	c #706F6F",
"= 	c #555253",
"- 	c #828080",
"; 	c #525051",
"> 	c #818080",
", 	c #777676",
"' 	c #7B797A",
") 	c #565454",
"! 	c #646262",
"~ 	c #7C7B7B",
"{ 	c #787777",
"] 	c #7B7A7A",
"^ 	c #676565",
"/ 	c #656363",
"( 	c #7D7C7C",
"_ 	c #565354",
": 	c #666464",
"< 	c #676566",
"[ 	c #6F6E6F",
"} 	c #575555",
"| 	c #545252",
"1 	c #717070",
"2 	c #585556",
"3 	c #696768",
"4 	c #FEFEFE",
"5 	c #F7F7F7",
"6 	c #FBFBFB",
"7 	c #C3C2C2",
"8 	c #5B6B6E",
"9 	c #326772",
"0 	c #43656D",
"a 	c #979797",
"b 	c #F9F9F9",
"c 	c #747273",
"d 	c #4F4D4E",
"e 	c #BEBDBD",
"f 	c #1D6B79",
"g 	c #01B9DB",
"h 	c #00C0E4",
"i 	c #00BEE2",
"j 	c #0993AD",
"k 	c #7A7C7D",
"l 	c #7E7D7D",
"m 	c #353333",
"n 	c #3B3738",
"o 	c #FDFDFD",
"p 	c #4F6569",
"q 	c #01BBDE",
"r 	c #00BDE0",
"s 	c #00B6D7",
"t 	c #00B8D9",
"u 	c #00C6EA",
"v 	c #17778A",
"w 	c #C7C6C6",
"x 	c #6B6A6A",
"y 	c #393536",
"z 	c #434141",
"A 	c #403C3D",
"B 	c #3C3A3B",
"C 	c #EBEBEB",
"D 	c #226977",
"E 	c #00C2E5",
"F 	c #00BEE0",
"G 	c #07A0BC",
"H 	c #A1A1A2",
"I 	c #605E5F",
"J 	c #332F30",
"K 	c #454243",
"L 	c #474545",
"M 	c #484646",
"N 	c #383435",
"O 	c #F1F1F1",
"P 	c #2C636F",
"Q 	c #00B6D8",
"R 	c #00C0E2",
"S 	c #0896B0",
"T 	c #ADACAC",
"U 	c #5D5C5C",
"V 	c #3B393A",
"W 	c #413D3E",
"X 	c #3A3637",
"Y 	c #787B7D",
"Z 	c #05A4C2",
"` 	c #00C4E9",
" .	c #00BCDE",
"..	c #00BFE2",
"+.	c #36626A",
"@.	c #E3E3E3",
"#.	c #5A5859",
"$.	c #3E3B3B",
"%.	c #413E3F",
"&.	c #4B4848",
"*.	c #5E696C",
"=.	c #0B89A0",
"-.	c #05A7C5",
";.	c #079AB6",
">.	c #2F616C",
",.	c #6D6B6C",
"'.	c #494647",
").	c #F5F5F5",
"!.	c #B8B8B8",
"~.	c #A3A4A4",
"{.	c #E1E1E1",
"].	c #6E6C6D",
"^.	c #6A6969",
"/.	c #5F5D5E",
"(.	c #585657",
"_.	c #615F5F",
":.	c #5E5D5D",
"<.	c #858484",
"[.	c #7F7E7E",
"}.	c #4E4C4D",
"|.	c #636262",
"                      .                                         ",
"                    + @ #                                       ",
"                  $ % & * =                                     ",
"                - ; > , ' * )                                   ",
"                  + ! ~ { ] * )                                 ",
"                    ^ / ( , ' * _                               ",
"                      : / ~ { ] * )                             ",
"                        < ! ~ , ' [ }                           ",
"                          : : ~ { ] * |                         ",
"                            : / ( , ' 1 2                       ",
"                              3 ! ~ { ] [ _                     ",
"                    4 5 6       / : ~ , ' * _                   ",
"                  7 8 9 0 a b     < ! ~ { ] c d                 ",
"                e f g h i j k       $ ! ~ l + m n               ",
"              o p q r s t u v w       ^ + x y z A B             ",
"              C D E s s s F G H         I J K L M A N           ",
"              O P E Q s s R S T         U V W M M X M           ",
"                Y Z `  ...h +.@.      #.* c $.%.n &.            ",
"                C *.=.-.;.>.e       # ,.] ] c m '.              ",
"                  ).!.. ~.{.      # ].' , ~ ^./.                ",
"                                (.,.] { ] $ _.                  ",
"                              #.,.' , ( < _.                    ",
"                            2 ,.] { ~ 3 _.                      ",
"                          #.,.' , ( 3 :.                        ",
"                        # ,.] { ~ $ _.                          ",
"                      (.,.' , ( + :.                            ",
"                    #.,.] { ~ 3 /.                              ",
"                  @ ,.' , ~ $ _.                                ",
"                <.; [., ~ + :.                                  ",
"                  l # & 3 /.                                    ",
"                    > }.|.                                      ",
"                      .                                         "};
